<svg width="18" height="18" viewBox="0 0 18 18" fill="none" xmlns="http://www.w3.org/2000/svg">
<mask id="mask0_190_3268" style="mask-type:luminance" maskUnits="userSpaceOnUse" x="0" y="0" width="18" height="18">
<path d="M18 0H0V18H18V0Z" fill="white"/>
</mask>
<g mask="url(#mask0_190_3268)">
<path fill-rule="evenodd" clip-rule="evenodd" d="M9 18C4.029 18 0 13.971 0 9C0 4.029 4.029 0 9 0C13.971 0 18 4.029 18 9C18 13.971 13.971 18 9 18Z" fill="#EAA004"/>
<mask id="mask1_190_3268" style="mask-type:alpha" maskUnits="userSpaceOnUse" x="0" y="0" width="18" height="18">
<path fill-rule="evenodd" clip-rule="evenodd" d="M9 18C4.029 18 0 13.971 0 9C0 4.029 4.029 0 9 0C13.971 0 18 4.029 18 9C18 13.971 13.971 18 9 18Z" fill="white"/>
</mask>
<g mask="url(#mask1_190_3268)">
<path d="M18 0H0V18H18V0Z" fill="#FFE7B5"/>
</g>
<path fill-rule="evenodd" clip-rule="evenodd" d="M13.5 5H10V4.5C10 4.224 9.776 4 9.5 4H5.5C5.224 4 5 4.224 5 4.5V13.5C5 13.776 5.224 14 5.5 14C5.776 14 6 13.776 6 13.5V9H9V9.5C9 9.776 9.224 10 9.5 10H13.5C13.776 10 14 9.776 14 9.5V5.5C14 5.224 13.776 5 13.5 5Z" fill="#FFE7B5"/>
<mask id="mask2_190_3268" style="mask-type:alpha" maskUnits="userSpaceOnUse" x="5" y="4" width="9" height="10">
<path fill-rule="evenodd" clip-rule="evenodd" d="M13.5 5H10V4.5C10 4.224 9.776 4 9.5 4H5.5C5.224 4 5 4.224 5 4.5V13.5C5 13.776 5.224 14 5.5 14C5.776 14 6 13.776 6 13.5V9H9V9.5C9 9.776 9.224 10 9.5 10H13.5C13.776 10 14 9.776 14 9.5V5.5C14 5.224 13.776 5 13.5 5Z" fill="white"/>
</mask>
<g mask="url(#mask2_190_3268)">
<path d="M18 0H0V18H18V0Z" fill="#AF7C0F"/>
</g>
</g>
</svg>
