<svg class="d-none">
	<symbol viewBox="0 0 18 18" id="ticket">
		<mask id="mask0_190_3245" style="mask-type:luminance" maskUnits="userSpaceOnUse" x="0" y="0" width="18" height="18">
		<path d="M18 0H0V18H18V0Z" fill="white"/>
		</mask>
		<g mask="url(#mask0_190_3245)">
		<path fill-rule="evenodd" clip-rule="evenodd" d="M9 18C4.029 18 0 13.971 0 9C0 4.029 4.029 0 9 0C13.971 0 18 4.029 18 9C18 13.971 13.971 18 9 18Z" fill="#006E90"/>
		<mask id="mask1_190_3245" style="mask-type:alpha" maskUnits="userSpaceOnUse" x="0" y="0" width="18" height="18">
		<path fill-rule="evenodd" clip-rule="evenodd" d="M9 18C4.029 18 0 13.971 0 9C0 4.029 4.029 0 9 0C13.971 0 18 4.029 18 9C18 13.971 13.971 18 9 18Z" fill="white"/>
		</mask>
		<g mask="url(#mask1_190_3245)">
		<path d="M18 0H0V18H18V0Z" fill="#D5F6F8"/>
		</g>
		<path fill-rule="evenodd" clip-rule="evenodd" d="M13.8533 6.14601C13.6583 5.95101 13.3412 5.95101 13.1462 6.14601L7.49928 11.792L4.85328 9.14601C4.65828 8.95101 4.34125 8.95101 4.14625 9.14601C3.95125 9.34101 3.95125 9.65801 4.14625 9.85301L7.14625 12.853C7.24425 12.951 7.37228 13 7.49928 13C7.62728 13 7.75528 12.951 7.85328 12.853L13.8533 6.85301C14.0483 6.65801 14.0483 6.34101 13.8533 6.14601Z" fill="#D5F6F8"/>
		<mask id="mask2_190_3245" style="mask-type:alpha" maskUnits="userSpaceOnUse" x="4" y="5" width="10" height="8">
		<path fill-rule="evenodd" clip-rule="evenodd" d="M13.8533 6.14601C13.6583 5.95101 13.3412 5.95101 13.1462 6.14601L7.49928 11.792L4.85328 9.14601C4.65828 8.95101 4.34125 8.95101 4.14625 9.14601C3.95125 9.34101 3.95125 9.65801 4.14625 9.85301L7.14625 12.853C7.24425 12.951 7.37228 13 7.49928 13C7.62728 13 7.75528 12.951 7.85328 12.853L13.8533 6.85301C14.0483 6.65801 14.0483 6.34101 13.8533 6.14601Z" fill="white"/>
		</mask>
		<g mask="url(#mask2_190_3245)">
		<path d="M18 0H0V18H18V0Z" fill="#006E90"/>
		</g>
		</g>
	</symbol>

	<symbol viewBox="0 0 48 48" id="implementation-4">
		<path opacity="0.7" d="M6 24.0001C6 14.0591 14.0588 6.00024 23.9999 6.00024C33.9409 6.00024 41.9997 14.0591 41.9997 24.0001C41.9997 33.9412 33.9409 42 23.9999 42C14.0588 42 6 33.9412 6 24.0001Z" fill="url(#paint0_linear_98_33120)"/>
		<path opacity="0.7" d="M30 29.9998H38.9999C43.9705 29.9998 47.9999 34.0292 47.9999 38.9997C47.9999 43.9702 43.9705 47.9996 38.9999 47.9996C34.0294 47.9996 30 43.9702 30 38.9997V29.9998Z" fill="url(#paint1_linear_98_33120)"/>
		<path opacity="0.7" d="M18 29.9998L18 38.9997C18 43.9702 13.9706 47.9996 9.00007 47.9996C4.02954 47.9996 0.000136718 43.9702 0.000136936 38.9997C0.000137153 34.0292 4.02955 29.9998 9.00007 29.9998L18 29.9998Z" fill="url(#paint2_linear_98_33120)"/>
		<path opacity="0.7" d="M30 17.9998L30 8.99982C30 4.02929 34.0294 -0.000106988 38.9999 -0.000107205C43.9705 -0.000107422 47.9999 4.0293 47.9999 8.99982C47.9999 13.9704 43.9705 17.9998 38.9999 17.9998L30 17.9998Z" fill="url(#paint3_linear_98_33120)"/>
		<path opacity="0.7" d="M18 17.9998L9.00006 17.9998C4.02954 17.9998 0.000136977 13.9704 0.000136542 8.99983C0.000136108 4.0293 4.02954 -0.00010559 9.00007 -0.000106025C13.9706 -0.000106459 18 4.0293 18 8.99983L18 17.9998Z" fill="url(#paint4_linear_98_33120)"/>
		<defs>
		<linearGradient id="paint0_linear_98_33120" x1="-3.62782" y1="19.8141" x2="47.4415" y2="20.6513" gradientUnits="userSpaceOnUse">
		<stop stop-color="#0CE087"/>
		<stop offset="1" stop-color="#8EFFD0"/>
		</linearGradient>
		<linearGradient id="paint1_linear_98_33120" x1="27.4733" y1="42.3301" x2="48.3501" y2="31.9089" gradientUnits="userSpaceOnUse">
		<stop stop-color="#C2E00C"/>
		<stop offset="1" stop-color="#F0FF97"/>
		</linearGradient>
		<linearGradient id="paint2_linear_98_33120" x1="5.66967" y1="27.4731" x2="16.0908" y2="48.3499" gradientUnits="userSpaceOnUse">
		<stop stop-color="#C2E00C"/>
		<stop offset="1" stop-color="#F0FF97"/>
		</linearGradient>
		<linearGradient id="paint3_linear_98_33120" x1="42.3303" y1="20.5264" x2="31.9092" y2="-0.350386" gradientUnits="userSpaceOnUse">
		<stop stop-color="#C2E00C"/>
		<stop offset="1" stop-color="#F0FF97"/>
		</linearGradient>
		<linearGradient id="paint4_linear_98_33120" x1="20.5267" y1="5.66942" x2="-0.350142" y2="16.0906" gradientUnits="userSpaceOnUse">
		<stop stop-color="#C2E00C"/>
		<stop offset="1" stop-color="#F0FF97"/>
		</linearGradient>
		</defs>
	</symbol>

	<symbol viewBox="0 0 57 58" id="implementation-3">
		<path opacity="0.7" d="M48.3087 29.2035C49.9191 30.8139 49.9191 33.4249 48.3087 35.0353L32.6515 50.6925C30.0537 53.2903 25.6119 51.4504 25.6119 47.7766L25.6119 31.0522L25.6119 16.4622C25.6119 12.7883 30.0537 10.9485 32.6515 13.5463L48.3087 29.2035Z" fill="url(#paint0_linear_98_33114)"/>
		<path opacity="0.7" d="M8.69128 28.5287C7.08088 26.9183 7.08088 24.3073 8.69128 22.6969L24.3485 7.03967C26.9463 4.4419 31.3881 6.28175 31.3881 9.95555L31.3881 26.68L31.3881 41.27C31.3881 44.9438 26.9463 46.7837 24.3485 44.1859L8.69128 28.5287Z" fill="url(#paint1_linear_98_33114)"/>
		<defs>
		<linearGradient id="paint0_linear_98_33114" x1="37.2746" y1="10.9788" x2="22.3968" y2="55.5139" gradientUnits="userSpaceOnUse">
		<stop stop-color="#0CADE0"/>
		<stop offset="1" stop-color="#99CAFF"/>
		</linearGradient>
		<linearGradient id="paint1_linear_98_33114" x1="8.75361" y1="42.2908" x2="45.6835" y2="6.55221" gradientUnits="userSpaceOnUse">
		<stop stop-color="#0C71E0"/>
		<stop offset="1" stop-color="#BEDDFF"/>
		</linearGradient>
		</defs>
	</symbol>

	<symbol viewBox="0 0 46 46" id="implementation-2">
		<rect opacity="0.7" y="22.3225" width="31.5688" height="31.5688" rx="4.11902" transform="rotate(-45 0 22.3225)" fill="url(#paint0_linear_98_33102)"/>
		<rect opacity="0.7" x="25.6504" y="13.6733" width="28.2682" height="16.4761" rx="4.11902" transform="rotate(45 25.6504 13.6733)" fill="url(#paint1_linear_98_33102)"/>
		<defs>
		<linearGradient id="paint0_linear_98_33102" x1="-8.44281" y1="34.4361" x2="36.3408" y2="35.1703" gradientUnits="userSpaceOnUse">
		<stop stop-color="#06DDFF"/>
		<stop offset="1" stop-color="#ADF4FF"/>
		</linearGradient>
		<linearGradient id="paint1_linear_98_33102" x1="18.0903" y1="19.9956" x2="58.1707" y2="21.1229" gradientUnits="userSpaceOnUse">
		<stop stop-color="#00DAFD"/>
		<stop offset="1" stop-color="#ADF4FF"/>
		</linearGradient>
		</defs>
	</symbol>

	<symbol viewBox="0 0 48 48" id="implementation-1">
		<path opacity="0.7" d="M34.123 34.1218L17.0617 34.1218C7.63921 34.1218 0.000766086 26.4834 0.000765263 17.0609C0.000764439 7.63843 7.63931 -9.12884e-06 17.0618 -9.95257e-06C26.4844 -1.07763e-05 34.123 7.63852 34.123 17.0611L34.123 34.1218Z" fill="url(#paint0_linear_98_33092)"/>
		<path opacity="0.7" d="M46.2487 17.061C47.2159 17.061 48 17.8451 48 18.8123C48 34.9322 34.9319 47.9999 18.812 47.9999C17.8448 47.9999 17.0607 47.2158 17.0607 46.2486L17.0607 21.3263C17.0607 18.9707 18.9703 17.061 21.326 17.061L46.2487 17.061Z" fill="url(#paint1_linear_98_33092)"/>
		<defs>
		<linearGradient id="paint0_linear_98_33092" x1="43.2488" y1="21.0286" x2="-5.1572" y2="20.235" gradientUnits="userSpaceOnUse">
		<stop stop-color="#00DAFD"/>
		<stop offset="1" stop-color="#ADF4FF"/>
		</linearGradient>
		<linearGradient id="paint1_linear_98_33092" x1="26.8059" y1="12.7181" x2="44.718" y2="48.6022" gradientUnits="userSpaceOnUse">
		<stop stop-color="#0C71E0"/>
		<stop offset="1" stop-color="#5CAAFF"/>
		</linearGradient>
		</defs>
	</symbol>

	<symbol viewBox="0 0 20 20" id="dolar-circle">
		<path d="M9.43806 16.8693H10.5054V15.6405C11.3541 15.5802 12.0919 15.3142 12.7188 14.8425C13.3458 14.3708 13.6592 13.6682 13.6592 12.7348C13.6592 11.952 13.4314 11.3115 12.9756 10.8131C12.5198 10.3147 11.692 9.83663 10.4921 9.37895C9.42147 8.96613 8.70827 8.61216 8.35248 8.31702C7.99672 8.02187 7.81884 7.60236 7.81884 7.0585C7.81884 6.55033 8.02292 6.12253 8.43109 5.7751C8.83924 5.42766 9.37874 5.25395 10.0496 5.25395C10.5741 5.25395 11.0094 5.36837 11.3555 5.59722C11.7016 5.82606 11.9977 6.14368 12.2438 6.5501L13.1746 6.14432C12.8913 5.61356 12.5249 5.19048 12.0756 4.8751C11.6262 4.55971 11.1195 4.38104 10.5554 4.33907V3.13662H9.48806V4.34047C8.61243 4.47381 7.94064 4.79301 7.47269 5.29807C7.00474 5.80316 6.77076 6.39037 6.77076 7.05972C6.77076 7.83279 7.0089 8.44785 7.48519 8.9049C7.96147 9.36195 8.73615 9.79047 9.80924 10.1905C10.9131 10.6315 11.6592 11.0221 12.0477 11.3622C12.4362 11.7023 12.6304 12.1592 12.6304 12.7328C12.6304 13.3984 12.3772 13.8921 11.8708 14.2137C11.3644 14.5354 10.7889 14.6962 10.1445 14.6962C9.54235 14.6962 8.99395 14.5216 8.49929 14.1722C8.00464 13.8229 7.62718 13.336 7.36691 12.7116L6.39961 13.077C6.72013 13.7911 7.13327 14.344 7.63903 14.7357C8.1448 15.1273 8.74448 15.4069 9.43806 15.5742V16.8693ZM9.98816 19.4001C8.69666 19.4001 7.48302 19.1506 6.34723 18.6515C5.21143 18.1525 4.21907 17.4785 3.37013 16.6296C2.52122 15.7806 1.84723 14.7872 1.34818 13.6492C0.849134 12.5112 0.599609 11.2949 0.599609 10.0001C0.599609 8.70327 0.849626 7.48343 1.34966 6.3406C1.84969 5.19776 2.52656 4.19962 3.38026 3.34617C4.23396 2.49271 5.22678 1.82166 6.35873 1.33305C7.4907 0.844414 8.70064 0.600098 9.98854 0.600098C11.2863 0.600098 12.5092 0.844414 13.6571 1.33305C14.805 1.82166 15.8039 2.49281 16.6537 3.3465C17.5036 4.20018 18.1737 5.19981 18.664 6.34537C19.1544 7.49094 19.3996 8.7137 19.3996 10.0136C19.3996 11.3097 19.1553 12.5215 18.6667 13.6489C18.178 14.7764 17.507 15.7667 16.6535 16.62C15.8001 17.4733 14.8007 18.15 13.6555 18.65C12.5102 19.1501 11.2878 19.4001 9.98816 19.4001ZM9.99961 18.3059C12.2979 18.3059 14.2568 17.4952 15.8762 15.8738C17.4957 14.2524 18.3054 12.2945 18.3054 10.0001C18.3054 7.70181 17.4957 5.74295 15.8762 4.1235C14.2568 2.50405 12.2979 1.69432 9.99961 1.69432C7.70518 1.69432 5.74727 2.50405 4.12588 4.1235C2.50452 5.74295 1.69383 7.70181 1.69383 10.0001C1.69383 12.2945 2.50452 14.2524 4.12588 15.8738C5.74727 17.4952 7.70518 18.3059 9.99961 18.3059Z"/>
	</symbol>

	<symbol viewBox="0 0 17 17" id="facebook">
		<g clip-path="url(#clip0_247_85)">
		<path d="M16.4338 8.45645C16.4338 4.16551 12.9553 0.687012 8.66433 0.687012C4.37339 0.687012 0.894894 4.16551 0.894894 8.45645C0.894894 12.7474 4.37339 16.2259 8.66433 16.2259C12.9553 16.2259 16.4338 12.7474 16.4338 8.45645Z" fill="#337FFF"/>
		<path d="M10.5654 8.96231L10.7868 7.55562H9.42301V6.64126C9.42301 6.25664 9.61343 5.88079 10.2223 5.88079H10.8511V4.6829C10.4849 4.62449 10.1149 4.59291 9.74406 4.58838C8.62157 4.58838 7.88874 5.26315 7.88874 6.48301V7.55562H6.64447V8.96231H7.88874V12.3647H9.42301V8.96231H10.5654Z" fill="white"/>
		</g>
		<defs>
		<clipPath id="clip0_247_85">
		<rect width="15.9962" height="15.7" fill="white" transform="translate(0.691889 0.666016)"/>
		</clipPath>
		</defs>
	</symbol>

	<symbol viewBox="0 0 17 17" id="google">
		<g clip-path="url(#clip0_247_75)">
		<path d="M16.5295 7.95238C16.5295 3.67663 13.0633 0.210449 8.78758 0.210449C4.51183 0.210449 1.04564 3.67663 1.04564 7.95238V8.46851C1.04564 12.7443 4.51183 16.2104 8.78758 16.2104C13.0633 16.2104 16.5295 12.7443 16.5295 8.46851V7.95238Z" fill="#F1F1F1"/>
		<path d="M13.3312 8.51213C13.3312 8.18259 13.3003 7.84235 13.2489 7.52344H8.79408V9.40514H11.3456C11.2427 10.0111 10.9032 10.5427 10.399 10.8829L11.9217 12.1055C12.8168 11.2444 13.3312 9.98986 13.3312 8.51213Z" fill="#4280EF"/>
		<path d="M8.79506 13.2749C10.0708 13.2749 11.1408 12.839 11.9227 12.0948L10.4 10.8828C9.97823 11.1805 9.43294 11.3507 8.79506 11.3507C7.56042 11.3507 6.5213 10.4895 6.14066 9.34131L4.57683 10.5852C5.37932 12.233 7.00486 13.2749 8.79506 13.2749Z" fill="#34A353"/>
		<path d="M6.14061 9.33065C5.94515 8.72467 5.94515 8.06552 6.14061 7.45953L4.5768 6.20508C3.90805 7.58712 3.90805 9.2137 4.5768 10.5852L6.14061 9.33065Z" fill="#F6B704"/>
		<path d="M8.79506 5.45023C9.4638 5.4396 10.1222 5.70536 10.6058 6.18376L11.9536 4.78044C11.0996 3.9512 9.96791 3.50469 8.79506 3.51532C7.00486 3.51532 5.37932 4.55719 4.57683 6.20502L6.14066 7.45952C6.52135 6.30071 7.56048 5.45023 8.79506 5.45023Z" fill="#E54335"/>
		</g>
		<defs>
		<clipPath id="clip0_247_75">
		<rect width="16" height="16.5161" fill="white" transform="translate(0.669998)"/>
		</clipPath>
		</defs>
	</symbol>

	<symbol viewBox="0 0 21 20" id="vb">
		<path d="M0.504013 20L1.85601 15.032C0.965153 13.5049 0.497113 11.768 0.500013 10C0.500013 4.477 4.97701 0 10.5 0C16.023 0 20.5 4.477 20.5 10C20.5 15.523 16.023 20 10.5 20C8.7328 20.0029 6.99667 19.5352 5.47001 18.645L0.504013 20ZM6.89101 5.308C6.76188 5.31602 6.63569 5.35003 6.52001 5.408C6.41153 5.46943 6.31251 5.54622 6.22601 5.636C6.10601 5.749 6.03801 5.847 5.96501 5.942C5.59542 6.423 5.39662 7.01342 5.40001 7.62C5.40201 8.11 5.53001 8.587 5.73001 9.033C6.13901 9.935 6.81201 10.89 7.70101 11.775C7.91501 11.988 8.12401 12.202 8.34901 12.401C9.4524 13.3725 10.7673 14.073 12.189 14.447L12.758 14.534C12.943 14.544 13.128 14.53 13.314 14.521C13.6053 14.506 13.8896 14.4271 14.147 14.29C14.313 14.202 14.391 14.158 14.53 14.07C14.53 14.07 14.573 14.042 14.655 13.98C14.79 13.88 14.873 13.809 14.985 13.692C15.068 13.606 15.14 13.505 15.195 13.39C15.273 13.227 15.351 12.916 15.383 12.657C15.407 12.459 15.4 12.351 15.397 12.284C15.393 12.177 15.304 12.066 15.207 12.019L14.625 11.758C14.625 11.758 13.755 11.379 13.224 11.137C13.168 11.1126 13.108 11.0987 13.047 11.096C12.9786 11.089 12.9095 11.0967 12.8443 11.1186C12.7791 11.1405 12.7193 11.1761 12.669 11.223V11.221C12.664 11.221 12.597 11.278 11.874 12.154C11.8325 12.2098 11.7754 12.2519 11.7098 12.2751C11.6443 12.2982 11.5733 12.3013 11.506 12.284C11.4409 12.2666 11.377 12.2445 11.315 12.218C11.191 12.166 11.148 12.146 11.063 12.109L11.058 12.107C10.4859 11.8572 9.9562 11.5198 9.488 11.107C9.362 10.997 9.245 10.877 9.125 10.761C8.7316 10.3842 8.38873 9.958 8.10501 9.493L8.04601 9.398C8.00364 9.3342 7.96937 9.2653 7.94401 9.193C7.90601 9.046 8.00501 8.928 8.00501 8.928C8.00501 8.928 8.24801 8.662 8.36101 8.518C8.4551 8.3983 8.5429 8.2738 8.624 8.145C8.742 7.955 8.779 7.76 8.717 7.609C8.43701 6.925 8.14701 6.244 7.84901 5.568C7.79001 5.434 7.61501 5.338 7.45601 5.319C7.40201 5.313 7.34801 5.307 7.29401 5.303C7.15972 5.29633 7.02515 5.29866 6.89101 5.308Z"/>
	</symbol>

	<symbol viewBox="0 0 21 18" id="tw">
		<path d="M20.6623 2.65593C19.8989 2.99362 19.0893 3.2154 18.2603 3.31393C19.134 2.79136 19.788 1.96894 20.1003 0.999931C19.2803 1.48793 18.3813 1.82993 17.4443 2.01493C16.8149 1.34151 15.9807 0.894891 15.0713 0.744511C14.1618 0.594131 13.2282 0.748422 12.4156 1.18338C11.6029 1.61834 10.9567 2.30961 10.5774 3.14972C10.1981 3.98983 10.107 4.93171 10.3183 5.82893C8.6554 5.74558 7.02863 5.31345 5.54358 4.56059C4.05854 3.80773 2.74842 2.75097 1.6983 1.45893C1.32659 2.09738 1.13125 2.82315 1.1323 3.56193C1.1323 5.01193 1.8703 6.29293 2.9923 7.0429C2.32831 7.022 1.67893 6.84271 1.0983 6.51993V6.57193C1.0985 7.5376 1.43267 8.4735 2.04414 9.221C2.65562 9.9684 3.50678 10.4814 4.4533 10.6729C3.83691 10.84 3.1906 10.8646 2.5633 10.7449C2.83016 11.5762 3.3503 12.3031 4.05089 12.824C4.75147 13.3449 5.59743 13.6337 6.4703 13.6499C5.60278 14.3313 4.60947 14.8349 3.54718 15.1321C2.48488 15.4293 1.37442 15.5142 0.279297 15.3819C2.19099 16.6114 4.41639 17.264 6.6893 17.2619C14.3823 17.2619 18.5893 10.8889 18.5893 5.36193C18.5893 5.18193 18.5843 4.99993 18.5763 4.82193C19.3952 4.23009 20.1019 3.49695 20.6633 2.65693L20.6623 2.65593Z"/>
	</symbol>

	<symbol viewBox="0 0 20 18" id="in">
		<path d="M4.44043 2.00002C4.44016 2.53046 4.2292 3.03906 3.85394 3.41394C3.47868 3.78883 2.96986 3.99929 2.43943 3.99902C1.909 3.99876 1.40039 3.78779 1.02551 3.41253C0.65062 3.03727 0.44016 2.52846 0.44043 1.99802C0.4407 1.46759 0.65166 0.958994 1.02692 0.584104C1.40218 0.209224 1.911 -0.00123632 2.44143 -0.000976322C2.97186 -0.000706322 3.48047 0.210264 3.85535 0.585524C4.23024 0.960784 4.4407 1.46959 4.44043 2.00002ZM4.50043 5.48002H0.50043V18H4.50043V5.48002ZM10.8204 5.48002H6.84043V18H10.7804V11.43C10.7804 7.77 15.5504 7.43 15.5504 11.43V18H19.5004V10.07C19.5004 3.90002 12.4404 4.13002 10.7804 7.16L10.8204 5.48002Z"/>
	</symbol>

	<symbol viewBox="0 0 11 20" id="fb">
		<path d="M7.5 11.5H10L11 7.5H7.5V5.5C7.5 4.47 7.5 3.5 9.5 3.5H11V0.14C10.674 0.0970001 9.443 0 8.143 0C5.428 0 3.5 1.657 3.5 4.7V7.5H0.5V11.5H3.5V20H7.5V11.5Z"/>
	</symbol>

	<symbol viewBox="0 0 17 17" id="reset">
		<g clip-path="url(#clip0_1_67546)">
		<path d="M15.6333 3.01147V7.01147H11.6333" stroke="#00152F" stroke-width="1.33333" stroke-linecap="round" stroke-linejoin="round"/>
		<path d="M0.966309 13.678V9.67798H4.96631" stroke="#00152F" stroke-width="1.33333" stroke-linecap="round" stroke-linejoin="round"/>
		<path d="M2.63964 6.34461C2.97775 5.38914 3.5524 4.53488 4.30995 3.86156C5.06751 3.18824 5.98329 2.71779 6.97183 2.49412C7.96038 2.27045 8.98948 2.30084 9.9631 2.58246C10.9367 2.86409 11.8231 3.38776 12.5396 4.10461L15.633 7.01128M0.966309 9.67795L4.05964 12.5846C4.77614 13.3015 5.66256 13.8251 6.63618 14.1068C7.60981 14.3884 8.6389 14.4188 9.62745 14.1951C10.616 13.9714 11.5318 13.501 12.2893 12.8277C13.0469 12.1543 13.6215 11.3001 13.9596 10.3446" stroke="#00152F" stroke-width="1.33333" stroke-linecap="round" stroke-linejoin="round" fill="none"/>
		</g>
		<defs>
		<clipPath id="clip0_1_67546">
			<rect width="16" height="16" fill="white" transform="translate(0.299805 0.344727)"/>
		</clipPath>
		</defs>
	</symbol>

	<symbol viewBox="0 0 19 19" id="search">
		<path d="M17.7334 16.3345L13.5408 12.1419C14.4942 10.7265 14.9646 8.958 14.7128 7.0736C14.2834 3.86837 11.6564 1.25999 8.44804 0.853795C3.67784 0.250192 -0.333334 4.26137 0.270306 9.03155C0.676605 12.2413 3.28534 14.8704 6.49092 15.2977C8.37532 15.5495 10.1441 15.0793 11.5592 14.1257L15.7518 18.3183C16.2989 18.8654 17.1861 18.8654 17.7332 18.3183C18.2798 17.7705 18.2798 16.8809 17.7334 16.3345ZM2.98047 8.07885C2.98047 5.60671 4.99167 3.59552 7.46381 3.59552C9.93594 3.59552 11.9471 5.60671 11.9471 8.07885C11.9471 10.551 9.93594 12.5622 7.46381 12.5622C4.99167 12.5622 2.98047 10.5517 2.98047 8.07885Z"/>
	</symbol>

	<symbol viewBox="0 0 14 9" id="arr-down">
		<path d="M11.4324 0.0899906L6.58486 4.93749L1.71986 0.0899906L0.109863 1.69999L6.56736 8.48999L13.0424 1.69999L11.4324 0.0899906Z" fill="black"/>
	</symbol>

	<symbol viewBox="0 0 13 11" id="arr-right-2">
		<path d="M0 5.50615H11.5M11.5 5.50615L6.99385 10.0123M11.5 5.50615L6.99385 1"/>
	</symbol>

	<symbol viewBox="0 0 15 14" id="arr-right">
		<path d="M7.74175 0.584121L14.0617 6.90412L7.74175 13.2241L6.82975 12.3281L12.2377 6.90412L6.82975 1.49612L7.74175 0.584121ZM13.3417 6.26412V7.54412H0.989746V6.26412H13.3417Z"/>
	</symbol>

	<symbol viewBox="0 0 51 52" id="vector-col-white">
		<path fill-rule="evenodd" clip-rule="evenodd" d="M0 5.37145V45.5743C0 48.5092 2.43614 50.9457 5.37059 50.9457H12.7344V12.7364H35.0472V0H5.37059C2.43614 0 0 2.43653 0 5.37145Z" fill="white"/>
		<path fill-rule="evenodd" clip-rule="evenodd" d="M38.2031 15.9485V38.2649H12.7344L25.4688 51.0014H45.5669C48.5014 51.0014 50.9375 48.5648 50.9375 45.6299V21.3199C50.9375 18.385 48.5014 15.9485 45.5669 15.9485H38.2031Z" fill="white"/>
		<path fill-rule="evenodd" clip-rule="evenodd" d="M50.9375 12.7364H38.2031V0L50.9375 12.7364Z" fill="white"/>
		<path fill-rule="evenodd" clip-rule="evenodd" d="M22.3115 15.9485H35.0459V28.6849L22.3115 15.9485Z" fill="white"/>
	</symbol>

	<symbol viewBox="0 0 18 18" id="tel">
		<path d="M16.3846 17.5C14.6115 17.5 12.7833 17.0525 10.9 16.1576C9.01664 15.2628 7.25992 13.9987 5.6298 12.3654C3.99968 10.732 2.73719 8.97529 1.84232 7.09518C0.947442 5.21506 0.5 3.38847 0.5 1.6154C0.5 1.29672 0.605317 1.03115 0.81595 0.818701C1.02657 0.606235 1.28984 0.5 1.60577 0.5H4.45887C4.71961 0.5 4.93972 0.584941 5.1192 0.754825C5.29868 0.924692 5.42497 1.14424 5.49805 1.41348L6.09433 4.09293C6.12886 4.34506 6.12048 4.57177 6.0692 4.77305C6.01792 4.97433 5.9205 5.14353 5.77695 5.28065L3.41727 7.57883C3.86342 8.34421 4.33458 9.05318 4.83075 9.70575C5.3269 10.3583 5.86343 10.9711 6.44035 11.5442C7.06343 12.184 7.72626 12.7679 8.42883 13.2961C9.13139 13.8243 9.88332 14.3045 10.6846 14.7365L12.9538 12.4019C13.1205 12.2186 13.307 12.0952 13.5135 12.0317C13.7199 11.9683 13.9353 11.9532 14.1596 11.9865L16.5865 12.5211C16.8557 12.5814 17.0753 12.7169 17.2451 12.9278C17.415 13.1386 17.5 13.3774 17.5 13.6442V16.3942C17.5 16.7101 17.3937 16.9734 17.1813 17.184C16.9688 17.3946 16.7032 17.5 16.3846 17.5ZM2.84998 6.55L4.91345 4.54808C4.9391 4.52243 4.95673 4.48717 4.96632 4.4423C4.97594 4.39742 4.97755 4.35575 4.97115 4.3173L4.425 1.78845C4.41858 1.73717 4.39775 1.69871 4.3625 1.67308C4.32723 1.64743 4.28396 1.6346 4.23268 1.6346H1.76923C1.73076 1.6346 1.69871 1.64743 1.67307 1.67308C1.64742 1.69871 1.6346 1.73076 1.6346 1.76923C1.6487 2.46281 1.75639 3.20191 1.95767 3.98653C2.15896 4.77114 2.45639 5.62563 2.84998 6.55ZM11.7577 15.2788C12.441 15.6147 13.1891 15.8762 14.0019 16.0634C14.8147 16.2506 15.5577 16.3545 16.2307 16.375C16.2692 16.375 16.3012 16.3622 16.3269 16.3365C16.3525 16.3109 16.3654 16.2788 16.3654 16.2404V13.7865C16.3654 13.7352 16.3525 13.692 16.3269 13.6567C16.3012 13.6214 16.2628 13.6006 16.2115 13.5942L13.9442 13.1269C13.9057 13.1205 13.8721 13.1221 13.8433 13.1317C13.8144 13.1413 13.7839 13.1589 13.7519 13.1846L11.7577 15.2788Z"/>
	</symbol>

	<symbol viewBox="0 0 20 20" id="lamp">
		<path d="M10.0083 19.5C8.69238 19.5 7.45991 19.2506 6.31088 18.752C5.16184 18.2533 4.15555 17.5724 3.292 16.7092C2.42843 15.846 1.74721 14.8395 1.24833 13.6898C0.749442 12.54 0.5 11.3065 0.5 9.98915C0.5 8.67823 0.749334 7.44603 1.248 6.29255C1.74667 5.13907 2.42758 4.13472 3.29075 3.2795C4.15393 2.42427 5.16041 1.74721 6.31017 1.24833C7.45994 0.749443 8.69348 0.5 10.0108 0.5C11.3217 0.5 12.5539 0.749334 13.7074 1.248C14.8609 1.74667 15.8652 2.42342 16.7205 3.27825C17.5757 4.1331 18.2527 5.13834 18.7516 6.29398C19.2505 7.44959 19.5 8.68215 19.5 9.99165C19.5 11.3076 19.2506 12.54 18.752 13.6891C18.2533 14.8381 17.5765 15.8429 16.7217 16.7034C15.8669 17.5638 14.8616 18.2451 13.706 18.747C12.5504 19.249 11.3178 19.5 10.0083 19.5ZM10.0125 18.3654C12.3323 18.3654 14.3045 17.5506 15.9288 15.9211C17.5532 14.2916 18.3654 12.3138 18.3654 9.98748C18.3654 7.66761 17.5547 5.69549 15.9335 4.07113C14.3123 2.44678 12.3344 1.6346 9.99998 1.6346C7.68203 1.6346 5.70831 2.44522 4.07883 4.06645C2.44934 5.68768 1.6346 7.66553 1.6346 9.99998C1.6346 12.3179 2.44934 14.2916 4.07883 15.9211C5.70831 17.5506 7.68619 18.3654 10.0125 18.3654ZM9.99998 16.7307C10.2615 16.7307 10.4961 16.6541 10.7038 16.5009C10.9115 16.3477 11.05 16.1487 11.1192 15.9038H8.88075C8.96023 16.1487 9.10126 16.3477 9.30383 16.5009C9.50639 16.6541 9.73844 16.7307 9.99998 16.7307ZM7.15383 14.1634H12.8461V13.3365H7.15383V14.1634ZM7.07305 11.9615H12.9269C13.5114 11.5273 13.9773 10.9764 14.3249 10.3089C14.6724 9.64142 14.8461 8.91024 14.8461 8.11538C14.8461 6.77461 14.3736 5.63173 13.4286 4.68673C12.4836 3.74173 11.3407 3.26923 9.99998 3.26923C8.65921 3.26923 7.51633 3.74173 6.57133 4.68673C5.62633 5.63173 5.15382 6.77461 5.15382 8.11538C5.15382 8.91024 5.32758 9.64142 5.6751 10.3089C6.02262 10.9764 6.4886 11.5273 7.07305 11.9615ZM7.37498 11.1346C6.94444 10.7172 6.60443 10.2446 6.35495 9.71675C6.10548 9.1889 5.98075 8.65428 5.98075 8.11288C5.98075 7.00478 6.37293 6.05829 7.15728 5.27343C7.94164 4.48856 8.88753 4.09613 9.99493 4.09613C11.1023 4.09613 12.0499 4.48856 12.8376 5.27343C13.6253 6.05829 14.0192 7.00478 14.0192 8.11288C14.0192 8.65428 13.8945 9.1889 13.645 9.71675C13.3955 10.2446 13.0555 10.7172 12.625 11.1346H7.37498Z"/>
	</symbol>

	<symbol viewBox="0 0 48 48" id="send">
		<circle cx="24" cy="24" r="24" fill="url(#paint0_linear_54_6167)"/>
		<circle cx="24" cy="24" r="23.1335" stroke="white" stroke-opacity="0.1" stroke-width="1.73292"/>
		<path d="M13.9468 21.3151C13.4243 21.1409 13.4201 20.8599 13.9575 20.6807L33.0438 14.3186C33.5722 14.1425 33.8753 14.4383 33.7273 14.9566L28.2741 34.0428C28.1231 34.5713 27.8184 34.5896 27.5951 34.0872L24.0007 25.9997L30.0007 17.9997L22.0007 23.9997L13.9468 21.3151Z" fill="white"/>
		<defs>
		<linearGradient id="paint0_linear_54_6167" x1="-99.8758" y1="-138.977" x2="143.878" y2="37.6045" gradientUnits="userSpaceOnUse">
		<stop offset="0.118631" stop-color="#0C71E0"/>
		<stop offset="0.411458" stop-color="#0C71E0" stop-opacity="0.63"/>
		<stop offset="0.713542" stop-color="#00DAFD" stop-opacity="0.87"/>
		<stop offset="1" stop-color="#00DAFD"/>
		</linearGradient>
		</defs>
	</symbol>

	<symbol viewBox="0 0 15 11" id="check-3">
		<path d="M5.33457 8.64274L12.9949 0.982422L14.1734 2.16093L5.33457 10.9997L0.03125 5.69649L1.20976 4.51799L5.33457 8.64274Z"/>
	</symbol>

	<symbol viewBox="0 0 18 18" id="star">
		<path d="M2.38538 17.3248C1.92235 17.3248 1.52166 17.1556 1.18331 16.8173C0.844956 16.4789 0.675781 16.0782 0.675781 15.6152V2.3844C0.675781 1.92137 0.844956 1.52068 1.18331 1.18233C1.52166 0.84398 1.92235 0.674805 2.38538 0.674805H15.6162C16.0792 0.674805 16.4799 0.84398 16.8183 1.18233C17.1566 1.52068 17.3258 1.92137 17.3258 2.3844V15.6152C17.3258 16.0782 17.1566 16.4789 16.8183 16.8173C16.4799 17.1556 16.0792 17.3248 15.6162 17.3248H2.38538ZM2.38538 16.2306H15.6162C15.77 16.2306 15.911 16.1665 16.0393 16.0383C16.1675 15.9101 16.2316 15.769 16.2316 15.6152V2.3844C16.2316 2.23057 16.1675 2.08955 16.0393 1.96133C15.911 1.83313 15.77 1.76903 15.6162 1.76903H2.38538C2.23155 1.76903 2.09052 1.83313 1.96231 1.96133C1.83411 2.08955 1.77001 2.23057 1.77001 2.3844V15.6152C1.77001 15.769 1.83411 15.9101 1.96231 16.0383C2.09052 16.1665 2.23155 16.2306 2.38538 16.2306ZM6.29308 12.8825L9.00078 11.2517L11.7085 12.8825L10.9989 9.8075L13.37 7.77288L10.2335 7.4671L9.00078 4.5921L7.76808 7.4671L4.63156 7.77288L7.02771 9.8075L6.29308 12.8825Z"/>
	</symbol>

	<symbol viewBox="0 0 16 14" id="cur-4">
		<path d="M10.5116 14C8.8973 14 7.49079 13.5326 6.29206 12.5978C5.09334 11.6629 4.26908 10.4824 3.81929 9.05608H0.734375V8.14423H3.6975C3.63126 7.84295 3.60162 7.48692 3.60856 7.07613C3.61551 6.66533 3.64515 6.25161 3.6975 5.83494H0.734375V4.92308H3.85135C4.27977 3.45512 5.09334 2.26762 6.29206 1.36056C7.49079 0.453521 8.8973 0 10.5116 0C11.3866 0 12.2317 0.144229 13.0469 0.432687C13.862 0.721145 14.6072 1.12926 15.2825 1.65704L14.6318 2.28685C14.0282 1.84776 13.3805 1.50881 12.6887 1.27002C11.9969 1.03124 11.2712 0.911854 10.5116 0.911854C9.12273 0.911854 7.92882 1.28685 6.92988 2.03685C5.93094 2.78685 5.22902 3.74893 4.8241 4.92308H10.5405V5.83494H4.63021C4.57465 6.11165 4.54073 6.46154 4.52844 6.88463C4.51615 7.30769 4.55007 7.72756 4.63021 8.14423H10.5405V9.05608H4.82892C5.23063 10.2025 5.93094 11.1611 6.92988 11.9319C7.92882 12.7027 9.12273 13.0881 10.5116 13.0881C11.2541 13.0881 11.9782 12.9765 12.6839 12.7532C13.3895 12.5299 14.0458 12.1763 14.6526 11.6923L15.2825 12.3221C14.6478 12.8713 13.9163 13.2882 13.0877 13.5729C12.2592 13.8576 11.4005 14 10.5116 14Z"/>
	</symbol>

	<symbol viewBox="0 0 12 14" id="cur-3">
		<path d="M5.55399 14V10.8109H1.18701V9.89904H5.55399V7.63783H1.18701V6.72596H5.06522L0.800781 0H1.90816L5.99951 6.4984L10.1117 0H11.1982L6.9338 6.72596H10.8328V7.63783H6.46587V9.89904H10.8328V10.8109H6.46587V14H5.55399Z"/>
	</symbol>

	<symbol viewBox="0 0 8 16" id="cur-2">
		<path d="M3.54357 15.2916V13.5592C2.76366 13.4705 2.11943 13.2152 1.61089 12.7932C1.10233 12.3712 0.738545 11.8033 0.519531 11.0897L1.35928 10.7355C1.60286 11.3872 1.94421 11.8763 2.38332 12.2026C2.82242 12.529 3.38652 12.6922 4.07561 12.6922C4.7252 12.6922 5.30747 12.521 5.82243 12.1786C6.33737 11.8362 6.59484 11.3316 6.59484 10.665C6.59484 10.0389 6.3817 9.53865 5.95543 9.16419C5.52915 8.78972 4.84752 8.45504 3.91055 8.16017C2.8379 7.82683 2.06066 7.41471 1.57882 6.92379C1.09699 6.43288 0.856073 5.82363 0.856073 5.09606C0.856073 4.35781 1.11809 3.74964 1.64214 3.27154C2.16616 2.79345 2.79998 2.51327 3.54357 2.431V0.708252H4.45543V2.431C4.97787 2.46841 5.46692 2.62466 5.92257 2.89975C6.37824 3.17486 6.7455 3.57204 7.02434 4.09127L6.21666 4.50313C5.98695 4.14415 5.69634 3.84822 5.34484 3.61531C4.99336 3.3824 4.55533 3.26594 4.03076 3.26594C3.40895 3.26594 2.87636 3.42806 2.43299 3.75231C1.98961 4.07658 1.76793 4.50901 1.76793 5.04961C1.76793 5.5464 1.92525 5.96787 2.23989 6.31402C2.55452 6.66018 3.32135 7.02609 4.54036 7.41177C5.56281 7.76006 6.31281 8.17806 6.79036 8.66577C7.26793 9.15349 7.50672 9.80815 7.50672 10.6297C7.49283 11.4748 7.20757 12.1556 6.65095 12.6722C6.09432 13.1888 5.36248 13.4876 4.45543 13.5688V15.2916H3.54357Z"/>
	</symbol>

	<symbol viewBox="0 0 10 16" id="cur-1">
		<path d="M0.21224 15.1667V14.0849C0.814795 13.6875 1.27313 13.3141 1.58724 12.9648C1.90134 12.6154 2.12569 12.2933 2.2603 11.9984C2.39493 11.7035 2.46784 11.4439 2.47905 11.2196C2.49027 10.9952 2.49589 10.8061 2.49589 10.6523C2.49589 10.429 2.47932 10.2137 2.4462 10.0064C2.41309 9.79915 2.37036 9.6015 2.31801 9.41346H0.00390625V8.5016H1.76511C1.18499 7.84134 0.79717 7.21447 0.601656 6.621C0.406142 6.02751 0.308386 5.46901 0.308386 4.9455C0.308386 3.78097 0.716503 2.79059 1.53274 1.97435C2.34898 1.15812 3.33937 0.75 4.50391 0.75C5.31693 0.75 6.05999 0.95566 6.73307 1.36698C7.40614 1.77831 7.93018 2.33654 8.30518 3.04167L7.47024 3.40065C7.15294 2.85898 6.73387 2.43376 6.21303 2.125C5.6922 1.81624 5.12249 1.66185 4.50391 1.66185C3.59899 1.66185 2.82548 1.98558 2.18339 2.63302C1.54129 3.28045 1.22024 4.05128 1.22024 4.9455C1.22024 5.45619 1.33189 5.99893 1.55518 6.57371C1.77847 7.1485 2.25817 7.79113 2.99428 8.5016H6.42057V9.41346H3.2507C3.30305 9.59081 3.34231 9.78392 3.36849 9.99279C3.39466 10.2017 3.40774 10.4215 3.40774 10.6523C3.40774 11.3114 3.22986 11.9535 2.87409 12.5785C2.51833 13.2035 2.02634 13.7623 1.39814 14.2548H6.69141C7.20956 14.2548 7.65507 14.1277 8.02795 13.8734C8.40081 13.6191 8.69514 13.2313 8.91095 12.7099L9.69941 13.1042C9.4836 13.7548 9.08991 14.2612 8.51832 14.6234C7.94674 14.9856 7.33777 15.1667 6.69141 15.1667H0.21224Z"/>
	</symbol>

	<symbol viewBox="0 0 38 34" id="cloud">
		<path d="M9.68114 29.7499C7.02817 29.7499 4.77647 28.8271 2.92604 26.9815C1.07561 25.1358 0.150391 22.8773 0.150391 20.206C0.150391 17.8301 0.974741 15.7095 2.62344 13.8442C4.27217 11.9788 6.29782 10.9627 8.70039 10.7961C9.19269 7.75247 10.6096 5.23581 12.951 3.24607C15.2925 1.25634 17.9961 0.261475 21.0619 0.261475C24.3747 0.261475 27.219 1.42749 29.5946 3.75952C31.9703 6.09159 33.2581 8.95121 33.4581 12.3384V14.923H34.6888C36.7196 14.9973 38.4209 15.7243 39.7927 17.1038C41.1645 18.4832 41.8504 20.2127 41.8504 22.2922C41.8504 24.3508 41.1221 26.1084 39.6655 27.565C38.2089 29.0216 36.4513 29.7499 34.3927 29.7499H9.68114ZM9.70214 27.5615H34.3927C35.8274 27.5615 37.0643 27.0419 38.1033 26.0029C39.1424 24.9638 39.6619 23.727 39.6619 22.2922C39.6619 20.8802 39.1428 19.6536 38.1045 18.6126C37.0663 17.5715 35.8304 17.0509 34.3968 17.0509H31.2562V12.9594C31.2562 10.0465 30.2551 7.56663 28.2528 5.51993C26.2506 3.47326 23.8075 2.44992 20.9237 2.44992C18.0655 2.44992 15.6338 3.47236 13.6286 5.51722C11.6234 7.56209 10.6208 10.0397 10.6208 12.9502H9.62909C7.60592 12.9502 5.88509 13.6499 4.46659 15.0494C3.04809 16.4488 2.33884 18.1888 2.33884 20.2692C2.33884 22.2999 3.05834 24.023 4.49734 25.4384C5.93634 26.8538 7.67127 27.5615 9.70214 27.5615Z"/>
	</symbol>

	<symbol viewBox="0 0 38 34" id="wallet">
		<path d="M2.38767 8.0153H35.6108V3.61915C35.6108 3.31148 35.4826 3.02943 35.2262 2.773C34.9697 2.5166 34.6877 2.3884 34.38 2.3884H3.61842C3.31075 2.3884 3.0287 2.5166 2.77227 2.773C2.51587 3.02943 2.38767 3.31148 2.38767 3.61915V8.0153ZM0.199219 3.61915C0.199219 2.69308 0.537569 1.8917 1.21427 1.215C1.89097 0.538302 2.69235 0.199951 3.61842 0.199951H34.38C35.3061 0.199951 36.1075 0.538302 36.7842 1.215C37.4609 1.8917 37.7992 2.69308 37.7992 3.61915V13.4115H2.38767V26.3308C2.38767 26.6384 2.51587 26.9205 2.77227 27.1769C3.0287 27.4333 3.31075 27.5615 3.61842 27.5615H15.5377V29.75H3.61842C2.69235 29.75 1.89097 29.4116 1.21427 28.7349C0.537569 28.0582 0.199219 27.2568 0.199219 26.3308V3.61915ZM24.5338 33.1269L16.9185 25.5115L18.48 23.95L24.5338 30.0038L36.3262 18.2115L37.8762 19.7346L24.5338 33.1269ZM2.38767 3.61915V26.3308C2.38767 26.6384 2.51587 26.9205 2.77227 27.1769C3.0287 27.4333 3.31075 27.5615 3.61842 27.5615H2.38767V18.9692V25.0961V2.3884H3.61842C3.31075 2.3884 3.0287 2.5166 2.77227 2.773C2.51587 3.02943 2.38767 3.31148 2.38767 3.61915Z"/>
	</symbol>

	<symbol viewBox="0 0 34 34" id="check-2">
		<path d="M10.8804 33.6501C7.93849 33.6501 5.44789 32.6304 3.40856 30.5911C1.36926 28.5518 0.349609 26.0612 0.349609 23.1193V10.8808C0.349609 7.93898 1.36926 5.44838 3.40856 3.40905C5.44789 1.36975 7.93849 0.350098 10.8804 0.350098H23.1189C26.0607 0.350098 28.5513 1.36975 30.5907 3.40905C32.63 5.44838 33.6496 7.93898 33.6496 10.8808V23.1193C33.6496 26.0612 32.63 28.5518 30.5907 30.5911C28.5513 32.6304 26.0607 33.6501 23.1189 33.6501H10.8804ZM14.9881 23.9809L26.1035 12.8655L24.5419 11.3039L14.9881 20.8578L10.3189 16.227L8.75731 17.7885L14.9881 23.9809ZM10.8978 31.4616H23.1015C25.4105 31.4616 27.381 30.6456 29.0131 29.0135C30.6451 27.3815 31.4612 25.411 31.4612 23.1019V10.8982C31.4612 8.58921 30.6451 6.61868 29.0131 4.98665C27.381 3.35458 25.4105 2.53855 23.1015 2.53855H10.8978C8.58873 2.53855 6.61819 3.35458 4.98616 4.98665C3.35409 6.61868 2.53806 8.58921 2.53806 10.8982V23.1019C2.53806 25.411 3.35409 27.3815 4.98616 29.0135C6.61819 30.6456 8.58873 31.4616 10.8978 31.4616Z"/>
	</symbol>

	<symbol viewBox="0 0 38 38" id="user">
		<path d="M6.79922 30.2423C8.72742 28.9218 10.6692 27.8955 12.6246 27.1634C14.5799 26.4314 16.7056 26.0654 19.0015 26.0654C21.2974 26.0654 23.4159 26.4314 25.3569 27.1634C27.298 27.8955 29.2659 28.9218 31.2608 30.2423C32.6685 28.6064 33.7454 26.8655 34.4915 25.0197C35.2377 23.1739 35.6108 21.1674 35.6108 19C35.6108 14.3641 34.0012 10.4365 30.7819 7.21725C27.5627 3.99802 23.6351 2.3884 18.9992 2.3884C14.3633 2.3884 10.4358 3.99802 7.21652 7.21725C3.99729 10.4365 2.38767 14.3641 2.38767 19C2.38767 21.1674 2.76267 23.1739 3.51267 25.0197C4.26267 26.8655 5.35819 28.6064 6.79922 30.2423ZM18.9888 20.3692C17.1522 20.3692 15.6069 19.7388 14.3531 18.4781C13.0992 17.2173 12.4723 15.6686 12.4723 13.8319C12.4723 11.9952 13.1027 10.4499 14.3634 9.1961C15.6242 7.94227 17.1729 7.31535 19.0096 7.31535C20.8463 7.31535 22.3915 7.94573 23.6454 9.2065C24.8992 10.4673 25.5262 12.016 25.5262 13.8527C25.5262 15.6893 24.8958 17.2346 23.635 18.4884C22.3743 19.7423 20.8255 20.3692 18.9888 20.3692ZM19.0226 37.8C16.4045 37.8 13.9619 37.3116 11.695 36.3349C9.42815 35.3582 7.43777 34.0056 5.72387 32.2772C4.01 30.5488 2.66075 28.5583 1.67612 26.3059C0.691519 24.0534 0.199219 21.6118 0.199219 18.9809C0.199219 16.4167 0.695035 13.9995 1.68667 11.7293C2.6783 9.4591 4.03027 7.45835 5.74257 5.72705C7.4549 3.99575 9.43789 2.64174 11.6915 1.665C13.9452 0.688302 16.3874 0.199951 19.0183 0.199951C21.5825 0.199951 23.9997 0.695769 26.2699 1.6874C28.5401 2.67904 30.5369 4.0316 32.2603 5.7451C33.9837 7.4586 35.3377 9.45107 36.3223 11.7225C37.3069 13.994 37.7992 16.412 37.7992 18.9766C37.7992 21.5947 37.3109 24.0373 36.3342 26.3042C35.3574 28.571 34.0034 30.5579 32.2721 32.2648C30.5408 33.9716 28.5409 35.3209 26.2723 36.3125C24.0038 37.3041 21.5872 37.8 19.0226 37.8ZM18.9992 35.6115C20.8172 35.6115 22.6422 35.3038 24.4742 34.6884C26.3063 34.073 27.9864 33.1115 29.5146 31.8038C28.0002 30.6895 26.3453 29.8193 24.5499 29.1931C22.7546 28.5669 20.9044 28.2538 18.9992 28.2538C17.0941 28.2538 15.2409 28.5602 13.4396 29.1731C11.6383 29.7859 10.0159 30.6678 8.57232 31.819C10.0416 33.1035 11.6922 34.0567 13.5242 34.6786C15.3563 35.3005 17.1813 35.6115 18.9992 35.6115ZM19.0046 18.1807C20.2292 18.1807 21.2576 17.7629 22.0896 16.9273C22.9217 16.0917 23.3377 15.0615 23.3377 13.8369C23.3377 12.6123 22.9199 11.5839 22.0842 10.7519C21.2486 9.91982 20.2185 9.5038 18.9939 9.5038C17.7692 9.5038 16.7409 9.92162 15.9088 10.7573C15.0768 11.5929 14.6608 12.623 14.6608 13.8476C14.6608 15.0722 15.0786 16.1006 15.9142 16.9327C16.7499 17.7647 17.78 18.1807 19.0046 18.1807Z" fill="white"/>
	</symbol>

	<symbol viewBox="0 0 44 36" id="three">
		<path d="M5.73042 0.69997C4.23685 0.69997 2.9673 1.22244 1.92177 2.26737C0.876266 3.3123 0.353516 4.58117 0.353516 6.07397C0.353516 7.56674 0.876266 8.8449 1.92177 9.90847C2.9673 10.972 4.23685 11.5038 5.73042 11.5038C6.10855 11.5038 6.47617 11.4641 6.83327 11.3846C7.19037 11.3051 7.53002 11.2026 7.85222 11.0769L16.492 22.973C15.8766 23.6038 15.4112 24.3514 15.0958 25.2156C14.7804 26.0799 14.6227 26.9683 14.6227 27.8809C14.6227 29.9686 15.3336 31.729 16.7553 33.162C18.177 34.595 19.9238 35.3115 21.9957 35.3115C24.0676 35.3115 25.824 34.595 27.2651 33.162C28.7061 31.729 29.4266 29.9686 29.4266 27.8809C29.4266 26.9683 29.2541 26.082 28.909 25.222C28.5639 24.362 28.1005 23.6124 27.5189 22.973L36.1609 11.0269C36.4483 11.1603 36.7825 11.2731 37.1636 11.3654C37.5446 11.4577 37.9061 11.5038 38.248 11.5038C39.7613 11.5038 41.0476 10.9762 42.1069 9.92097C43.1662 8.86574 43.6958 7.58437 43.6958 6.07687C43.6958 4.5833 43.1682 3.31375 42.113 2.26822C41.0577 1.22272 39.7764 0.69997 38.2689 0.69997C36.7753 0.69997 35.5057 1.22272 34.4602 2.26822C33.4147 3.31375 32.892 4.5833 32.892 6.07687C32.892 6.82194 33.0279 7.49347 33.2997 8.09147C33.5715 8.68944 33.933 9.253 34.3843 9.78217L25.7997 21.6307C25.3781 21.3325 24.9505 21.1043 24.517 20.9461C24.0834 20.788 23.6174 20.6658 23.1189 20.5797V11.3961C24.342 11.1243 25.3657 10.5055 26.1901 9.53952C27.0144 8.57355 27.4266 7.43562 27.4266 6.12572C27.4266 4.62925 26.899 3.35725 25.8437 2.30972C24.7885 1.26219 23.5071 0.738419 21.9997 0.738419C20.5061 0.738419 19.2365 1.26119 18.191 2.30672C17.1455 3.35222 16.6227 4.62177 16.6227 6.11537C16.6227 7.42617 17.0266 8.57245 17.8343 9.55422C18.642 10.536 19.674 11.15 20.9304 11.3961V20.5797C20.3986 20.6658 19.9095 20.788 19.4631 20.9461C19.0168 21.1043 18.6123 21.3325 18.2497 21.6307L9.57662 9.76152C10.0279 9.27945 10.4042 8.72817 10.7055 8.10767C11.0067 7.48714 11.1574 6.81021 11.1574 6.07687C11.1574 4.5833 10.6297 3.31375 9.57452 2.26822C8.51928 1.22272 7.23792 0.69997 5.73042 0.69997ZM5.72907 2.88842C6.6232 2.88842 7.3867 3.19962 8.01957 3.82202C8.65247 4.44442 8.96892 5.19559 8.96892 6.07552C8.96892 6.96965 8.65283 7.73315 8.02067 8.36602C7.3885 8.99892 6.62525 9.31537 5.73092 9.31537C4.83655 9.31537 4.08147 8.99928 3.46567 8.36712C2.84987 7.73495 2.54197 6.9717 2.54197 6.07737C2.54197 5.183 2.85317 4.42792 3.47557 3.81212C4.09797 3.19632 4.84913 2.88842 5.72907 2.88842ZM21.9983 2.92692C22.8924 2.92692 23.6559 3.23812 24.2888 3.86052C24.9217 4.48292 25.2381 5.23409 25.2381 6.11402C25.2381 7.00812 24.922 7.7716 24.2899 8.40447C23.6577 9.03737 22.8945 9.35382 22.0001 9.35382C21.1058 9.35382 20.3507 9.03774 19.7349 8.40557C19.1191 7.77344 18.8112 7.01019 18.8112 6.11582C18.8112 5.22149 19.1224 4.46642 19.7448 3.85062C20.3672 3.23482 21.1184 2.92692 21.9983 2.92692ZM38.2676 2.88842C39.1617 2.88842 39.9251 3.19962 40.558 3.82202C41.1909 4.44442 41.5074 5.19559 41.5074 6.07552C41.5074 6.96965 41.1913 7.73315 40.5591 8.36602C39.927 8.99892 39.1637 9.31537 38.2694 9.31537C37.375 9.31537 36.6199 8.99928 36.0041 8.36712C35.3883 7.73495 35.0804 6.9717 35.0804 6.07737C35.0804 5.183 35.3916 4.42792 36.014 3.81212C36.6364 3.19632 37.3876 2.88842 38.2676 2.88842ZM21.9997 22.6961C23.4043 22.6961 24.6285 23.2058 25.6723 24.225C26.7162 25.2443 27.2381 26.4642 27.2381 27.8846C27.2381 29.2892 26.7162 30.5134 25.6723 31.5573C24.6285 32.6011 23.4043 33.123 21.9997 33.123C20.5951 33.123 19.3792 32.6011 18.352 31.5573C17.3248 30.5134 16.8112 29.2892 16.8112 27.8846C16.8112 26.48 17.3208 25.2641 18.3401 24.2369C19.3594 23.2097 20.5793 22.6961 21.9997 22.6961Z" fill="white"/>
	</symbol>

	<symbol viewBox="0 0 15 16" id="vector">
		<path fill-rule="evenodd" clip-rule="evenodd" d="M0 1.58152V13.4185C0 14.2826 0.717391 15 1.58152 15H3.75V3.75H10.3207V0H1.58152C0.717391 0 0 0.717391 0 1.58152Z" fill="white"/>
		<path fill-rule="evenodd" clip-rule="evenodd" d="M11.25 4.69556V11.2662H3.75L7.5 15.0162H13.4185C14.2826 15.0162 15 14.2988 15 13.4347V6.27708C15 5.41295 14.2826 4.69556 13.4185 4.69556H11.25Z" fill="white"/>
		<path fill-rule="evenodd" clip-rule="evenodd" d="M15 3.75H11.25V0L15 3.75Z" fill="white"/>
		<path fill-rule="evenodd" clip-rule="evenodd" d="M6.57031 4.6958H10.3203V8.4458L6.57031 4.6958Z" fill="white"/>
	</symbol>

	<symbol viewBox="0 0 44 42" id="dolar">
		<path d="M21.9986 41.9C17.7319 41.9 13.8351 40.6538 10.3082 38.1615C6.7813 35.6692 4.21015 32.5462 2.59475 28.7923V35.6654H0.40625V24.7654H11.3063V26.9538H4.0832C5.42423 30.5692 7.76718 33.5994 11.1121 36.0442C14.4569 38.4891 18.0858 39.7115 21.9986 39.7115C24.4781 39.7115 26.8087 39.2723 28.9902 38.3938C31.1719 37.5154 33.1045 36.275 34.7883 34.6727C36.4721 33.0704 37.8352 31.1885 38.8775 29.027C39.9198 26.8656 40.5178 24.5232 40.6717 22H42.8601C42.732 24.8153 42.0935 27.4352 40.9447 29.8596C39.796 32.2839 38.289 34.3884 36.4236 36.1731C34.5582 37.9577 32.3844 39.3583 29.9022 40.375C27.42 41.3916 24.7854 41.9 21.9986 41.9ZM20.8755 34.7385V32.1721C19.4883 31.8215 18.289 31.2545 17.2775 30.4712C16.2659 29.6878 15.4396 28.5821 14.7986 27.1539L16.7332 26.4231C17.2537 27.6718 18.0076 28.6455 18.9948 29.3443C19.9819 30.043 21.0871 30.3923 22.3102 30.3923C23.5845 30.3923 24.7281 30.0717 25.7409 29.4304C26.7537 28.7892 27.2602 27.8008 27.2602 26.4654C27.2602 25.3254 26.8717 24.4135 26.0947 23.7296C25.3178 23.0458 23.8255 22.2628 21.6178 21.3808C19.4717 20.5808 17.9223 19.7237 16.9698 18.8096C16.0172 17.8955 15.5409 16.6689 15.5409 15.1299C15.5409 13.7703 16.0108 12.5805 16.9505 11.5606C17.8903 10.5407 19.2319 9.91411 20.9755 9.68078V7.27307H23.1102V9.68362C24.2383 9.76379 25.2518 10.1193 26.1505 10.75C27.0492 11.3808 27.7819 12.2269 28.3486 13.2884L26.487 14.1C25.9947 13.2871 25.4025 12.6519 24.7103 12.1942C24.0182 11.7365 23.1476 11.5077 22.0986 11.5077C20.7569 11.5077 19.6779 11.8551 18.8616 12.55C18.0452 13.2448 17.6371 14.1004 17.6371 15.1168C17.6371 16.1998 17.9928 17.0376 18.7043 17.6302C19.4159 18.2229 20.8423 18.932 22.9836 19.7577C25.3833 20.673 27.039 21.6293 27.9506 22.6264C28.8621 23.6235 29.3179 24.9036 29.3179 26.4668C29.3179 27.4094 29.1441 28.2179 28.7967 28.8923C28.4493 29.5666 27.9877 30.1429 27.412 30.6211C26.8364 31.0993 26.1765 31.4765 25.4324 31.7527C24.6883 32.0289 23.8808 32.2049 23.0102 32.2807V34.7384H20.8755V34.7385ZM1.13705 20C1.31655 17.0897 1.99495 14.4195 3.17225 11.9893C4.34955 9.55908 5.87615 7.46293 7.75205 5.70083C9.62792 3.93876 11.7863 2.56476 14.2272 1.57883C16.6681 0.592927 19.2586 0.0999756 21.9986 0.0999756C26.1217 0.0999756 30.0018 1.33588 33.639 3.80768C37.2762 6.27944 39.8806 9.46404 41.4524 13.3615V6.28458H43.6409V17.1846H32.7409V14.9961H39.964C38.5999 11.4756 36.239 8.47751 32.8813 6.00188C29.5236 3.52624 25.896 2.28842 21.9986 2.28842C19.6217 2.28842 17.3424 2.71483 15.1608 3.56763C12.9792 4.42046 11.0401 5.63521 9.3435 7.21187C7.6469 8.78857 6.25822 10.6576 5.17745 12.8191C4.09668 14.9805 3.47937 17.3742 3.3255 20H1.13705Z"/>
	</symbol>

	<symbol viewBox="0 0 16 22" id="lightning">
		<path d="M9 9H16L7 22V13H0L9 0V9Z"/>
	</symbol>

	<symbol viewBox="0 0 21 17" id="cash">
		<path d="M9.99943 12C12.2085 12 13.9994 10.2091 13.9994 8C13.9994 5.79086 12.2085 4 9.99943 4C7.79026 4 5.9994 5.79086 5.9994 8C5.9994 10.2091 7.79026 12 9.99943 12ZM19.0039 0.00292969H1.00391C0.451626 0.00292969 0.00390625 0.45064 0.00390625 1.00293V15.0029C0.00390625 15.5552 0.451626 16.0029 1.00391 16.0029H19.0039C19.5562 16.0029 20.0039 15.5552 20.0039 15.0029V1.00293C20.0039 0.45064 19.5562 0.00292969 19.0039 0.00292969ZM2.00391 11.6463V4.35371C3.12968 4.017 4.01739 3.12892 4.35358 2.00293H15.6452C15.9823 3.13193 16.8738 4.02175 18.0039 4.3564V11.6436C16.8719 11.9788 15.9792 12.8711 15.6434 14.0029H4.35533C4.02047 12.8742 3.13164 11.9836 2.00391 11.6463Z"/>
	</symbol>

	<symbol viewBox="0 0 22 13" id="check">
		<path d="M10.602 8.7599L12.014 10.1719L20.4795 1.7063L21.8938 3.12051L12.014 13.0003L5.65 6.6363L7.06421 5.2221L9.189 7.3469L10.602 8.7599ZM10.6037 5.9322L15.5563 0.979492L16.9666 2.38977L12.014 7.3424L10.6037 5.9322ZM7.77698 11.5873L6.36396 13.0003L0 6.6363L1.41421 5.2221L2.82723 6.6352L2.82604 6.6363L7.77698 11.5873Z"/>
	</symbol>

	<symbol viewBox="0 0 19 18" id="payment">
		<path d="M13.1612 10.5424C13.5842 10.5424 13.9486 10.3895 14.2544 10.0837C14.5602 9.77798 14.7131 9.41901 14.7131 9.00682C14.7131 8.56901 14.5602 8.20138 14.2544 7.90395C13.9486 7.60651 13.5842 7.4578 13.1612 7.4578C12.7381 7.4578 12.3737 7.60651 12.0679 7.90395C11.7621 8.20138 11.6092 8.56901 11.6092 9.00682C11.6092 9.41901 11.7621 9.77798 12.0679 10.0837C12.3737 10.3895 12.7381 10.5424 13.1612 10.5424ZM1.69383 13.6924V16.3059V1.69432V13.6924ZM2.30921 17.4001C1.83651 17.4001 1.4334 17.2309 1.09988 16.8926C0.766368 16.5542 0.599609 16.1535 0.599609 15.6905V2.3097C0.599609 1.837 0.766368 1.43389 1.09988 1.10037C1.4334 0.766856 1.83651 0.600098 2.30921 0.600098H15.69C16.153 0.600098 16.5537 0.766856 16.8921 1.10037C17.2304 1.43389 17.3996 1.837 17.3996 2.3097V5.36547H16.3054V2.3097C16.3054 2.13021 16.2477 1.98278 16.1323 1.8674C16.0169 1.75201 15.8695 1.69432 15.69 1.69432H2.30921C2.12973 1.69432 1.98229 1.75201 1.86691 1.8674C1.75153 1.98278 1.69383 2.13021 1.69383 2.3097V15.6905C1.69383 15.87 1.75153 16.0174 1.86691 16.1328C1.98229 16.2482 2.12973 16.3059 2.30921 16.3059H15.69C15.8695 16.3059 16.0169 16.2482 16.1323 16.1328C16.2477 16.0174 16.3054 15.87 16.3054 15.6905V12.6405H17.3996V15.6905C17.3996 16.1535 17.2304 16.5542 16.8921 16.8926C16.5537 17.2309 16.153 17.4001 15.69 17.4001H2.30921ZM10.64 13.1982C10.1562 13.1982 9.75321 13.0446 9.43101 12.7376C9.10879 12.4305 8.94768 12.0271 8.94768 11.5273V6.47865C8.94768 5.975 9.10879 5.57061 9.43101 5.26547C9.75321 4.96034 10.1562 4.80777 10.64 4.80777H16.7188C17.2155 4.80777 17.6249 4.96034 17.9471 5.26547C18.2693 5.57061 18.4304 5.975 18.4304 6.47865V11.5273C18.4304 12.0271 18.2693 12.4305 17.9471 12.7376C17.6249 13.0446 17.2155 13.1982 16.7188 13.1982H10.64ZM16.7208 12.1039C16.8874 12.1039 17.0317 12.0463 17.1535 11.9309C17.2753 11.8155 17.3362 11.6681 17.3362 11.4886V6.5174C17.3362 6.35073 17.2753 6.20651 17.1535 6.08472C17.0317 5.96292 16.8874 5.90202 16.7208 5.90202H10.6573C10.4906 5.90202 10.3464 5.96292 10.2246 6.08472C10.1028 6.20651 10.0419 6.35073 10.0419 6.5174V11.4886C10.0419 11.6681 10.1028 11.8155 10.2246 11.9309C10.3464 12.0463 10.4906 12.1039 10.6573 12.1039H16.7208Z"/>
	</symbol>

	<symbol viewBox="0 0 42 43" id="vector-col">
		<path fill-rule="evenodd" clip-rule="evenodd" d="M0 4.42826V37.5717C0 39.9913 2.0087 42 4.42826 42H10.5V10.5H28.8978V0H4.42826C2.0087 0 0 2.0087 0 4.42826Z" fill="#00DAFD"/>
		<path fill-rule="evenodd" clip-rule="evenodd" d="M31.5 13.1479V31.5458H10.5L21 42.0458H37.5717C39.9913 42.0458 42 40.0371 42 37.6175V17.5762C42 15.1566 39.9913 13.1479 37.5717 13.1479H31.5Z" fill="#0C71E0"/>
		<path fill-rule="evenodd" clip-rule="evenodd" d="M42 10.4999H31.5V-6.10352e-05L42 10.4999Z" fill="#00DAFD"/>
		<path fill-rule="evenodd" clip-rule="evenodd" d="M18.3984 13.1479H28.8984V23.6479L18.3984 13.1479Z" fill="#0C71E0"/>
	</symbol>

	<symbol viewBox="0 0 15 16" id="vector">
		<path fill-rule="evenodd" clip-rule="evenodd" d="M0 1.58152V13.4185C0 14.2826 0.717391 15 1.58152 15H3.75V3.75H10.3207V0H1.58152C0.717391 0 0 0.717391 0 1.58152Z"/>
		<path fill-rule="evenodd" clip-rule="evenodd" d="M11.25 4.69556V11.2662H3.75L7.5 15.0162H13.4185C14.2826 15.0162 15 14.2988 15 13.4347V6.27708C15 5.41295 14.2826 4.69556 13.4185 4.69556H11.25Z"/>
		<path fill-rule="evenodd" clip-rule="evenodd" d="M15 3.75H11.25V0L15 3.75Z"/>
		<path fill-rule="evenodd" clip-rule="evenodd" d="M6.57031 4.6958H10.3203V8.4458L6.57031 4.6958Z"/>
	</symbol>

	<symbol viewBox="0 0 18 18" id="login">
		<path d="M9.00578 17.5V16.3654H16.0577C16.1346 16.3654 16.2051 16.3333 16.2692 16.2692C16.3333 16.2051 16.3654 16.1346 16.3654 16.0576V1.94232C16.3654 1.86539 16.3333 1.79487 16.2692 1.73075C16.2051 1.66665 16.1346 1.6346 16.0577 1.6346H9.00578V0.5H16.0577C16.4498 0.5 16.7882 0.642351 17.0729 0.927051C17.3576 1.21175 17.5 1.55017 17.5 1.94232V16.0576C17.5 16.4498 17.3576 16.7882 17.0729 17.0729C16.7882 17.3576 16.4498 17.5 16.0577 17.5H9.00578ZM8.11158 12.8076L7.28661 12.0019L9.72121 9.56728H0.500031V8.43268H9.69043L7.25583 5.99808L8.07121 5.1827L11.9039 9.02018L8.11158 12.8076Z"/>
	</symbol>

	<symbol viewBox="0 0 14 8" id="arr">
		<path d="M6.99974 5.17192L11.9497 0.221924L13.3637 1.63592L6.99974 7.99992L0.635742 1.63592L2.04974 0.221924L6.99974 5.17192Z"/>
	</symbol>
</svg>