<svg viewBox="0 0 797 396">
	<path d="M385.021 304.424L388.722 300.722L385.021 297.021" stroke="#0C71E0" stroke-width="0.99" stroke-linecap="round"/>
	<path d="M385.021 98.504L388.722 94.8027L385.021 91.1013" stroke="#0C71E0" stroke-width="0.99" stroke-linecap="round"/>
	<path class="anim-dasharray" d="M248.516 198H310.886" stroke="#0C71E0" stroke-width="0.99" stroke-linecap="round"/>
	<path class="anim-dasharray dir" d="M381.176 95.04H322.766C318.392 95.04 314.846 98.5859 314.846 102.96V130.334V198" stroke="#0C71E0" stroke-width="0.99" stroke-linecap="round" stroke-dasharray="0.99 5.94 0.99 5.94" fill="none"/>
	<path class="anim-dasharray dir" d="M381.176 300.96H322.766C318.392 300.96 314.846 297.414 314.846 293.04V202.95" stroke="#0C71E0" stroke-width="0.99" stroke-linecap="round" stroke-dasharray="0.99 5.94 0.99 5.94" fill="none"/>
	<path d="M239.605 193.545C242.01 193.545 244.06 195.43 244.06 198C244.06 200.405 242.175 202.455 239.605 202.455C237.206 202.455 235.159 200.578 235.15 198.017C235.333 195.399 237.235 193.545 239.605 193.545Z" fill="white" stroke="#0C71E0" stroke-width="0.99"/>
	<path d="M352.465 105.93C358.48 105.93 363.355 101.054 363.355 95.04C363.355 89.0256 358.48 84.15 352.465 84.15C346.451 84.15 341.575 89.0256 341.575 95.04C341.575 101.054 346.451 105.93 352.465 105.93Z" fill="#9EA0B4"/>
	<path d="M347.361 95.3803L350.764 98.7834L357.57 91.9771" stroke="white" stroke-width="0.99" stroke-linecap="round" fill="none"/>
	<path d="M352.465 311.85C358.48 311.85 363.355 306.974 363.355 300.96C363.355 294.946 358.48 290.07 352.465 290.07C346.451 290.07 341.575 294.946 341.575 300.96C341.575 306.974 346.451 311.85 352.465 311.85Z" fill="#9EA0B4"/>
	<path d="M347.904 296.564L356.73 305.39" stroke="white" stroke-width="0.99" stroke-linecap="round"/>
	<path d="M356.73 296.552L347.904 305.377" stroke="white" stroke-width="0.99" stroke-linecap="round"/>
	<path d="M224.756 160.38H30.7159C28.5288 160.38 26.7559 162.153 26.7559 164.34V230.67C26.7559 232.857 28.5288 234.63 30.7159 234.63H224.756C226.943 234.63 228.716 232.857 228.716 230.67V164.34C228.716 162.153 226.943 160.38 224.756 160.38Z" fill="#0C71E0"/>
	<path d="M43.1658 177.784V175.423H44.3597C45.224 175.423 45.7586 175.708 45.7586 176.572V176.608C45.7586 177.392 45.2686 177.784 44.3597 177.784H43.1658ZM42.3906 181.17H43.1658V178.399H44.1459L46.0437 181.17H46.908L44.9567 178.346C45.8299 178.176 46.5338 177.659 46.5338 176.608V176.572C46.5338 175.298 45.5269 174.799 44.3063 174.799H42.3906V181.17ZM49.422 181.25C50.1704 181.25 50.6872 180.867 50.9011 180.43V181.17H51.6406V176.51H50.9011V179.335C50.9011 180.172 50.2774 180.609 49.618 180.609C48.8874 180.609 48.5399 180.243 48.5399 179.424V176.51H47.8004V179.459C47.8004 180.742 48.4954 181.25 49.422 181.25ZM53.1531 181.17H53.9015V174.283H53.1531V181.17ZM57.3217 181.25C58.3731 181.25 59.1483 180.76 59.3086 179.825H58.5691C58.4711 180.368 58.0523 180.635 57.3306 180.635C56.3772 180.635 55.8694 180.047 55.8337 178.987H59.3443V178.747C59.3443 177.08 58.3285 176.43 57.2504 176.43C55.9674 176.43 55.0675 177.41 55.0675 178.818V178.889C55.0675 180.324 56.003 181.25 57.3217 181.25ZM55.8605 178.39C55.9852 177.561 56.4931 177.045 57.2504 177.045C58.0167 177.045 58.5156 177.428 58.5869 178.39H55.8605Z" fill="white"/>
	<path d="M42.9506 201.96H45.0732V190.634H42.9506V201.96ZM50.4214 202.118C52.5439 202.118 53.7319 201.152 53.7319 199.473C53.7319 197.715 52.5756 197.24 50.6273 196.939C49.3126 196.717 48.9166 196.479 48.9166 195.877C48.9166 195.291 49.4076 194.895 50.2313 194.895C51.1183 194.895 51.546 195.244 51.7044 196.004H53.4785C53.2726 194.135 51.9262 193.501 50.2313 193.501C48.679 193.501 47.1267 194.325 47.1267 195.988C47.1267 197.541 47.9345 198.158 50.1204 198.507C51.3401 198.713 51.8945 198.966 51.8945 199.647C51.8945 200.344 51.4351 200.709 50.4055 200.709C49.2809 200.709 48.8532 200.218 48.7582 199.378H46.9524C47.0316 201.136 48.283 202.118 50.4214 202.118ZM62.0071 202.103C62.5932 202.103 63.0051 202.008 63.306 201.897V200.376C63.0367 200.487 62.7516 200.534 62.3715 200.534C61.7695 200.534 61.4211 200.202 61.4211 199.473V195.117H63.2427V193.676H61.4211V191.854H59.5044V193.676H58.3956V195.117H59.5044V199.647C59.5044 201.216 60.3598 202.103 62.0071 202.103ZM65.0348 201.96H66.9514V197.081C66.9514 195.767 67.8226 195.101 68.8997 195.101C70.0402 195.101 70.5471 195.672 70.5471 196.923V201.96H72.4637V196.749C72.4637 194.468 71.2916 193.501 69.6284 193.501C68.2661 193.501 67.3474 194.183 66.9514 194.99V189.842H65.0348V201.96ZM78.315 202.118C80.4376 202.118 81.8473 201.168 82.1166 199.426H80.2633C80.1208 200.233 79.5189 200.693 78.3625 200.693C76.9369 200.693 76.1449 199.806 76.0816 198.238H82.1483V197.683C82.1483 194.721 80.295 193.501 78.2358 193.501C75.8757 193.501 74.1174 195.212 74.1174 197.778V197.905C74.1174 200.519 75.8757 202.118 78.315 202.118ZM76.1133 196.955C76.3033 195.672 77.0795 194.895 78.2358 194.895C79.4238 194.895 80.1525 195.529 80.2475 196.955H76.1133ZM91.2619 202.118C93.5112 202.118 94.9527 200.772 95.0952 198.871H93.337C93.2261 200.043 92.3549 200.645 91.3411 200.645C89.9314 200.645 89.0443 199.695 89.0443 197.889V197.762C89.0443 196.052 89.9789 195.038 91.2936 195.038C92.3074 195.038 93.036 195.497 93.1944 196.606H95.0477C94.8259 194.325 93.0994 193.501 91.2619 193.501C88.9493 193.501 87.0802 195.165 87.0802 197.794V197.921C87.0802 200.566 88.8859 202.118 91.2619 202.118ZM99.518 202.118C100.864 202.118 101.736 201.469 102.147 200.661V201.96H104.064V193.676H102.147V198.602C102.147 199.917 101.245 200.582 100.215 200.582C99.1062 200.582 98.5832 200.012 98.5832 198.76V193.676H96.6665V198.982C96.6665 201.184 97.8862 202.118 99.518 202.118ZM109.172 202.118C111.294 202.118 112.482 201.152 112.482 199.473C112.482 197.715 111.326 197.24 109.377 196.939C108.063 196.717 107.667 196.479 107.667 195.877C107.667 195.291 108.158 194.895 108.981 194.895C109.868 194.895 110.296 195.244 110.455 196.004H112.229C112.023 194.135 110.676 193.501 108.981 193.501C107.429 193.501 105.877 194.325 105.877 195.988C105.877 197.541 106.685 198.158 108.871 198.507C110.09 198.713 110.645 198.966 110.645 199.647C110.645 200.344 110.185 200.709 109.156 200.709C108.031 200.709 107.603 200.218 107.508 199.378H105.703C105.782 201.136 107.033 202.118 109.172 202.118ZM116.983 202.103C117.569 202.103 117.981 202.008 118.282 201.897V200.376C118.012 200.487 117.727 200.534 117.347 200.534C116.745 200.534 116.397 200.202 116.397 199.473V195.117H118.218V193.676H116.397V191.854H114.48V193.676H113.371V195.117H114.48V199.647C114.48 201.216 115.335 202.103 116.983 202.103ZM123.702 202.118C126.141 202.118 127.963 200.439 127.963 197.857V197.731C127.963 195.196 126.141 193.501 123.718 193.501C121.278 193.501 119.457 195.212 119.457 197.778V197.905C119.457 200.424 121.262 202.118 123.702 202.118ZM123.718 200.629C122.26 200.629 121.421 199.568 121.421 197.873V197.747C121.421 196.036 122.292 195.006 123.718 195.006C125.143 195.006 125.999 196.052 125.999 197.762V197.873C125.999 199.568 125.143 200.629 123.718 200.629ZM129.694 201.96H131.611V197.002C131.611 195.735 132.482 195.101 133.432 195.101C134.367 195.101 134.906 195.624 134.906 196.844V201.96H136.822V197.002C136.822 195.735 137.693 195.101 138.644 195.101C139.594 195.101 140.117 195.624 140.117 196.844V201.96H142.034V196.717C142.034 194.436 140.798 193.501 139.277 193.501C138.248 193.501 137.107 193.961 136.474 194.99C136.062 193.961 135.207 193.501 134.129 193.501C132.91 193.501 132.007 194.167 131.611 194.943V193.676H129.694V201.96ZM147.878 202.118C150 202.118 151.41 201.168 151.679 199.426H149.826C149.683 200.233 149.081 200.693 147.925 200.693C146.499 200.693 145.707 199.806 145.644 198.238H151.711V197.683C151.711 194.721 149.858 193.501 147.798 193.501C145.438 193.501 143.68 195.212 143.68 197.778V197.905C143.68 200.519 145.438 202.118 147.878 202.118ZM145.676 196.955C145.866 195.672 146.642 194.895 147.798 194.895C148.986 194.895 149.715 195.529 149.81 196.955H145.676ZM153.424 201.96H155.34V197.652C155.34 195.893 156.354 195.355 158.033 195.339V193.549C156.639 193.565 155.863 194.183 155.34 195.228V193.676H153.424V201.96ZM164.476 192.313C165.109 192.313 165.616 191.838 165.616 191.22C165.616 190.587 165.109 190.112 164.476 190.112C163.842 190.112 163.335 190.587 163.335 191.22C163.335 191.838 163.842 192.313 164.476 192.313ZM163.541 201.96H165.458V193.676H163.541V201.96ZM167.793 201.96H169.71V197.081C169.71 195.767 170.581 195.101 171.658 195.101C172.799 195.101 173.306 195.672 173.306 196.923V201.96H175.222V196.749C175.222 194.468 174.05 193.501 172.387 193.501C171.025 193.501 170.106 194.183 169.71 194.99V193.676H167.793V201.96ZM45.3583 219.55C44.4079 219.55 44.0278 219.091 44.0278 218.394C44.0278 217.38 44.9623 217.048 46.4196 217.048H47.4017V217.871C47.4017 218.933 46.5305 219.55 45.3583 219.55ZM44.899 220.928C46.1662 220.928 46.8948 220.469 47.4334 219.756V220.77H49.3183V215.337C49.3183 213.072 47.861 212.311 46.0078 212.311C44.1545 212.311 42.618 213.119 42.4596 215.052H44.3129C44.4079 214.228 44.899 213.753 45.8969 213.753C47.0215 213.753 47.4017 214.307 47.4017 215.416V215.844H46.3721C43.9961 215.844 42.127 216.541 42.127 218.473C42.127 220.2 43.3783 220.928 44.899 220.928ZM55.337 220.77H57.2537V208.652H55.337V220.77ZM63.2805 220.928C65.7198 220.928 67.5414 219.249 67.5414 216.667V216.541C67.5414 214.006 65.7198 212.311 63.2963 212.311C60.857 212.311 59.0354 214.022 59.0354 216.588V216.715C59.0354 219.234 60.8411 220.928 63.2805 220.928ZM63.2963 219.439C61.839 219.439 60.9995 218.378 60.9995 216.683V216.557C60.9995 214.846 61.8707 213.816 63.2963 213.816C64.7219 213.816 65.5773 214.862 65.5773 216.572V216.683C65.5773 218.378 64.7219 219.439 63.2963 219.439ZM70.7519 220.77H72.7161L74.3951 215.194L75.9316 220.77H77.8799L80.4777 212.486H78.6085L76.882 218.473L75.2663 212.486H73.6665L71.9082 218.473L70.2609 212.486H68.2175L70.7519 220.77ZM85.7165 220.77H87.6331V216.462C87.6331 214.703 88.6469 214.165 90.3259 214.149V212.359C88.932 212.375 88.1558 212.993 87.6331 214.038V212.486H85.7165V220.77ZM92.9943 211.123C93.6279 211.123 94.1348 210.648 94.1348 210.03C94.1348 209.397 93.6279 208.922 92.9943 208.922C92.3607 208.922 91.8539 209.397 91.8539 210.03C91.8539 210.648 92.3607 211.123 92.9943 211.123ZM92.0598 220.77H93.9764V212.486H92.0598V220.77ZM99.1478 220.928C101.27 220.928 102.458 219.962 102.458 218.283C102.458 216.525 101.302 216.05 99.3537 215.749C98.0392 215.527 97.6432 215.289 97.6432 214.687C97.6432 214.101 98.1342 213.705 98.9579 213.705C99.8447 213.705 100.272 214.054 100.431 214.814H102.205C101.999 212.945 100.653 212.311 98.9579 212.311C97.4056 212.311 95.8533 213.135 95.8533 214.798C95.8533 216.351 96.6611 216.968 98.847 217.317C100.067 217.523 100.621 217.776 100.621 218.457C100.621 219.154 100.162 219.519 99.1319 219.519C98.0075 219.519 97.5798 219.028 97.4848 218.188H95.679C95.7582 219.946 97.0096 220.928 99.1478 220.928ZM104.139 220.77H106.056V216.699L109.161 220.77H111.378L107.893 216.287L111.109 212.486H109.018L106.056 216.129V208.652H104.139V220.77ZM120.096 220.928C122.345 220.928 123.787 219.582 123.929 217.681H122.171C122.06 218.853 121.189 219.455 120.175 219.455C118.766 219.455 117.879 218.505 117.879 216.699V216.572C117.879 214.862 118.813 213.848 120.128 213.848C121.142 213.848 121.87 214.307 122.029 215.416H123.882C123.66 213.135 121.934 212.311 120.096 212.311C117.784 212.311 115.914 213.975 115.914 216.604V216.731C115.914 219.376 117.72 220.928 120.096 220.928ZM129.271 220.928C131.71 220.928 133.531 219.249 133.531 216.667V216.541C133.531 214.006 131.71 212.311 129.286 212.311C126.847 212.311 125.025 214.022 125.025 216.588V216.715C125.025 219.234 126.831 220.928 129.271 220.928ZM129.286 219.439C127.829 219.439 126.99 218.378 126.99 216.683V216.557C126.99 214.846 127.861 213.816 129.286 213.816C130.712 213.816 131.567 214.862 131.567 216.572V216.683C131.567 218.378 130.712 219.439 129.286 219.439ZM138.035 220.928C139.381 220.928 140.253 220.279 140.664 219.471V220.77H142.581V212.486H140.664V217.412C140.664 218.727 139.762 219.392 138.732 219.392C137.623 219.392 137.1 218.822 137.1 217.57V212.486H135.184V217.792C135.184 219.994 136.403 220.928 138.035 220.928ZM144.853 220.77H146.77V215.891C146.77 214.577 147.641 213.911 148.718 213.911C149.859 213.911 150.365 214.482 150.365 215.733V220.77H152.282V215.559C152.282 213.278 151.11 212.311 149.447 212.311C148.084 212.311 147.166 212.993 146.77 213.8V212.486H144.853V220.77ZM157.31 220.913C157.896 220.913 158.308 220.818 158.609 220.707V219.186C158.34 219.297 158.055 219.344 157.675 219.344C157.073 219.344 156.724 219.012 156.724 218.283V213.927H158.546V212.486H156.724V210.664H154.808V212.486H153.699V213.927H154.808V218.457C154.808 220.026 155.663 220.913 157.31 220.913ZM160.338 220.77H162.254V216.462C162.254 214.703 163.268 214.165 164.947 214.149V212.359C163.553 212.375 162.777 212.993 162.254 214.038V212.486H160.338V220.77ZM167.63 223.605H169.515L174.029 212.486H172.16L170.133 217.824L167.931 212.486H165.856L169.135 219.93L167.63 223.605ZM177.175 217.364H178.949V216.858C178.996 215.97 179.757 215.321 180.501 214.608C181.214 213.911 181.895 213.183 181.895 212.058C181.895 210.522 180.834 209.286 178.569 209.286C176.446 209.286 174.973 210.585 174.862 212.66H176.699C176.81 211.567 177.491 210.87 178.474 210.87C179.44 210.87 179.883 211.393 179.883 212.201C179.883 212.882 179.361 213.404 178.774 213.99C178.014 214.735 177.175 215.511 177.175 216.762V217.364ZM178.046 220.881C178.743 220.881 179.313 220.342 179.313 219.661C179.313 218.964 178.743 218.426 178.046 218.426C177.333 218.426 176.747 218.964 176.747 219.661C176.747 220.342 177.333 220.881 178.046 220.881Z" fill="white"/>
	<path opacity="0.7" d="M761.335 202.95H572.245C567.871 202.95 564.325 206.496 564.325 210.87V360.36C564.325 364.734 567.871 368.28 572.245 368.28H761.335C765.709 368.28 769.255 364.734 769.255 360.36V210.87C769.255 206.496 765.709 202.95 761.335 202.95Z" fill="white"/>

	<g class="svg-section-4" filter="url(#filter0_d_98_59355)">
		<path d="M494.035 27.72H398.995C396.808 27.72 395.035 29.4929 395.035 31.68V155.43C395.035 157.617 396.808 159.39 398.995 159.39H494.035C496.222 159.39 497.995 157.617 497.995 155.43V31.68C497.995 29.4929 496.222 27.72 494.035 27.72Z" fill="white"/>
		<path d="M474.883 52.809V80.448C474.883 95.1 446.872 112.86 446.872 112.86C446.872 112.86 418.861 96.9315 418.861 80.448V52.809C418.861 52.809 440.87 50.589 446.872 39.6C452.875 50.589 474.883 52.809 474.883 52.809Z" fill="#0C71E0"/>
		<path d="M472.084 55.5669V79.9872C472.084 92.933 446.873 109.625 446.873 109.625C446.873 109.625 421.663 94.5511 421.663 79.9872V55.5669C421.663 55.5669 441.471 53.6055 446.873 43.8962C452.276 53.6055 472.084 55.5669 472.084 55.5669Z" fill="#0C71E0"/>
		<path d="M446.872 75.6137C452.766 75.6137 457.544 70.8361 457.544 64.9428C457.544 59.0494 452.766 54.2719 446.872 54.2719C440.979 54.2719 436.201 59.0494 436.201 64.9428C436.201 70.8361 440.979 75.6137 446.872 75.6137Z" fill="white" fill-opacity="0.4"/>
		<path d="M465.63 93.3719C465.63 93.3719 463.521 86.1216 461.436 83.0512C461.436 83.0512 459.889 80.4639 457.282 80.1815C457.284 80.1815 453.094 79.7699 448.755 79.7699H445.273C440.935 79.7699 436.744 80.1815 436.744 80.1815C434.136 80.4639 432.31 84.161 432.31 84.161C429.858 88.7831 428.199 94.1222 428.199 94.1222C428.199 94.1222 433.867 101.375 446.873 109.629C446.873 109.629 457.876 102.376 465.63 93.3719Z" fill="white" fill-opacity="0.4"/>
		<path d="M462.457 112.781C469.405 112.781 475.038 107.149 475.038 100.201C475.038 93.2529 469.405 87.6205 462.457 87.6205C455.509 87.6205 449.877 93.2529 449.877 100.201C449.877 107.149 455.509 112.781 462.457 112.781Z" fill="#0C71E0"/>
		<path d="M428.859 134.749C430.58 134.749 431.723 133.693 431.723 132.342C431.723 130.785 430.776 130.262 428.946 130.012C427.596 129.816 427.335 129.5 427.335 128.868C427.335 128.269 427.792 127.845 428.674 127.845C429.567 127.845 430.035 128.193 430.177 129.01H431.505C431.353 127.518 430.351 126.756 428.674 126.756C427.051 126.756 425.962 127.714 425.962 128.988C425.962 130.447 426.845 131.014 428.707 131.264C429.97 131.471 430.329 131.743 430.329 132.462C430.329 133.181 429.719 133.66 428.859 133.66C427.541 133.66 427.226 133.006 427.128 132.222H425.734C425.843 133.693 426.736 134.749 428.859 134.749ZM433.016 134.64H434.334V131.841L436.468 134.64H437.993L435.597 131.558L437.808 128.945H436.37L434.334 131.449V126.309H433.016V134.64ZM439.573 128.008C440.009 128.008 440.357 127.681 440.357 127.257C440.357 126.821 440.009 126.494 439.573 126.494C439.137 126.494 438.789 126.821 438.789 127.257C438.789 127.681 439.137 128.008 439.573 128.008ZM438.93 134.64H440.248V128.945H438.93V134.64ZM444.707 133.703C443.749 133.703 443.128 133.105 443.128 131.83V131.743C443.128 130.48 443.781 129.859 444.696 129.859C445.557 129.859 446.21 130.48 446.21 131.743V131.83C446.21 133.05 445.676 133.703 444.707 133.703ZM441.854 136.589H443.172V133.747C443.477 134.302 444.13 134.749 445.034 134.749C446.504 134.749 447.56 133.638 447.56 131.809V131.721C447.56 129.881 446.46 128.825 445.034 128.825C444.195 128.825 443.487 129.315 443.172 129.859V128.945H441.854V136.589ZM453.867 134.749C455.653 134.749 456.785 133.856 456.785 132.418C456.785 131.384 456.186 130.741 455.282 130.534C456.034 130.251 456.546 129.718 456.546 128.836C456.546 127.681 455.598 126.745 453.975 126.745C452.309 126.745 451.297 127.779 451.22 129.13H452.505C452.592 128.346 453.126 127.845 453.954 127.845C454.76 127.845 455.162 128.313 455.162 128.945C455.162 129.674 454.76 130.088 453.867 130.088H453.311V131.123H453.91C454.858 131.123 455.315 131.547 455.315 132.397C455.315 133.17 454.847 133.66 453.834 133.66C452.788 133.66 452.331 133.05 452.255 132.233H450.937C451.003 133.725 452.015 134.749 453.867 134.749ZM458.234 134.64H460.576C463.309 134.64 464.627 133.028 464.627 130.763V130.665C464.627 128.4 463.309 126.854 460.598 126.854H458.234V134.64ZM459.683 133.497V127.997H460.521C462.351 127.997 463.113 129.01 463.113 130.687V130.774C463.113 132.495 462.275 133.497 460.532 133.497H459.683ZM411.567 147.619C413.287 147.619 414.431 146.563 414.431 145.212C414.431 143.655 413.483 143.132 411.654 142.882C410.304 142.686 410.042 142.37 410.042 141.738C410.042 141.139 410.5 140.715 411.382 140.715C412.275 140.715 412.743 141.063 412.885 141.88H414.213C414.061 140.388 413.059 139.626 411.382 139.626C409.759 139.626 408.67 140.584 408.67 141.858C408.67 143.317 409.552 143.884 411.414 144.134C412.678 144.341 413.037 144.613 413.037 145.332C413.037 146.051 412.427 146.53 411.567 146.53C410.249 146.53 409.933 145.876 409.835 145.092H408.441C408.55 146.563 409.443 147.619 411.567 147.619ZM418.229 147.619C419.688 147.619 420.657 146.965 420.842 145.768H419.568C419.47 146.323 419.056 146.639 418.261 146.639C417.281 146.639 416.737 146.029 416.693 144.951H420.864V144.57C420.864 142.533 419.59 141.695 418.174 141.695C416.551 141.695 415.343 142.871 415.343 144.635V144.722C415.343 146.519 416.552 147.619 418.229 147.619ZM416.715 144.069C416.846 143.187 417.379 142.653 418.174 142.653C418.991 142.653 419.492 143.089 419.557 144.069H416.715ZM424.535 147.619C426.081 147.619 427.072 146.693 427.17 145.386H425.961C425.885 146.192 425.286 146.606 424.589 146.606C423.62 146.606 423.01 145.953 423.01 144.711V144.624C423.01 143.448 423.653 142.751 424.557 142.751C425.254 142.751 425.755 143.067 425.863 143.829H427.138C426.985 142.261 425.798 141.695 424.535 141.695C422.945 141.695 421.66 142.838 421.66 144.646V144.733C421.66 146.552 422.901 147.619 424.535 147.619ZM430.211 147.619C431.136 147.619 431.735 147.172 432.018 146.617V147.51H433.336V141.815H432.018V145.201C432.018 146.105 431.398 146.563 430.69 146.563C429.927 146.563 429.568 146.171 429.568 145.31V141.815H428.25V145.463C428.25 146.976 429.089 147.619 430.211 147.619ZM434.899 147.51H436.217V144.548C436.217 143.339 436.914 142.969 438.068 142.958V141.727C437.11 141.738 436.576 142.163 436.217 142.882V141.815H434.899V147.51ZM441.625 147.619C443.084 147.619 444.054 146.965 444.239 145.768H442.965C442.867 146.323 442.453 146.639 441.658 146.639C440.678 146.639 440.133 146.029 440.09 144.951H444.261V144.57C444.261 142.533 442.986 141.695 441.571 141.695C439.948 141.695 438.739 142.871 438.739 144.635V144.722C438.739 146.519 439.948 147.619 441.625 147.619ZM440.112 144.069C440.242 143.187 440.776 142.653 441.571 142.653C442.388 142.653 442.888 143.089 442.954 144.069H440.112ZM448.261 147.51H449.579V142.806H450.875V141.815H449.579V140.998C449.579 140.508 449.797 140.159 450.33 140.159C450.57 140.159 450.777 140.203 450.929 140.257V139.234C450.69 139.157 450.494 139.125 450.178 139.125C448.958 139.125 448.261 139.8 448.261 141.052V141.815H447.488V142.806H448.261V147.51ZM451.979 147.51H453.296V144.548C453.296 143.339 453.993 142.969 455.148 142.958V141.727C454.189 141.738 453.656 142.163 453.296 142.882V141.815H451.979V147.51ZM456.982 140.878C457.418 140.878 457.766 140.551 457.766 140.127C457.766 139.691 457.418 139.364 456.982 139.364C456.547 139.364 456.198 139.691 456.198 140.127C456.198 140.551 456.547 140.878 456.982 140.878ZM456.34 147.51H457.657V141.815H456.34V147.51ZM461.757 147.619C463.303 147.619 464.294 146.693 464.392 145.386H463.183C463.107 146.192 462.508 146.606 461.811 146.606C460.842 146.606 460.232 145.953 460.232 144.711V144.624C460.232 143.448 460.875 142.751 461.779 142.751C462.476 142.751 462.977 143.067 463.085 143.829H464.36C464.207 142.261 463.02 141.695 461.757 141.695C460.167 141.695 458.882 142.838 458.882 144.646V144.733C458.882 146.552 460.123 147.619 461.757 147.619ZM467.465 147.608C467.868 147.608 468.151 147.543 468.358 147.466V146.421C468.173 146.497 467.977 146.53 467.716 146.53C467.302 146.53 467.062 146.301 467.062 145.8V142.806H468.315V141.815H467.062V140.562H465.745V141.815H464.982V142.806H465.745V145.92C465.745 146.998 466.333 147.608 467.465 147.608ZM470.222 140.878C470.658 140.878 471.006 140.551 471.006 140.127C471.006 139.691 470.658 139.364 470.222 139.364C469.787 139.364 469.438 139.691 469.438 140.127C469.438 140.551 469.787 140.878 470.222 140.878ZM469.58 147.51H470.898V141.815H469.58V147.51ZM475.041 147.619C476.718 147.619 477.97 146.465 477.97 144.689V144.602C477.97 142.86 476.718 141.695 475.052 141.695C473.375 141.695 472.122 142.871 472.122 144.635V144.722C472.122 146.454 473.364 147.619 475.041 147.619ZM475.052 146.595C474.05 146.595 473.473 145.866 473.473 144.7V144.613C473.473 143.437 474.071 142.729 475.052 142.729C476.032 142.729 476.62 143.448 476.62 144.624V144.7C476.62 145.866 476.032 146.595 475.052 146.595ZM479.161 147.51H480.479V144.156C480.479 143.252 481.078 142.795 481.818 142.795C482.602 142.795 482.951 143.187 482.951 144.047V147.51H484.268V143.927C484.268 142.359 483.463 141.695 482.319 141.695C481.383 141.695 480.751 142.163 480.479 142.718V141.815H479.161V147.51Z" fill="#0C71E0"/>
		<path d="M463.345 104.94L468.295 99.99L463.345 95.04" stroke="white" stroke-width="1.98" stroke-linecap="round" fill="none"/>
		<path d="M456.415 99.99H467.305" stroke="white" stroke-width="1.98" stroke-linecap="round"/>
	</g>



	<g class="svg-section-6">
		<g filter="url(#filter1_d_98_59355)">
			<path class="anim-dasharray" d="M502.945 301.95H532.645" stroke="#0C71E0" stroke-width="0.99" stroke-linecap="round" stroke-dasharray="0.99 5.94"/>
			<path class="anim-dasharray" d="M542.545 301.95H596.005" stroke="#0C71E0" stroke-width="0.99" stroke-linecap="round" stroke-dasharray="0.99 5.94"/>
		</g>

		<path class="anim-dasharray" d="M596.996 342.54H545.516C541.142 342.54 537.596 338.994 537.596 334.62V322.143V297.536V267.3C537.596 262.926 541.142 259.38 545.516 259.38H596.996" stroke="#0C71E0" stroke-width="0.99" stroke-linecap="round" stroke-dasharray="0.99 5.94 0.99 5.94" fill="none"/>
		<path d="M598.031 225.829C599.882 225.829 601.211 224.881 601.44 223.008H600.024C599.872 224.108 599.109 224.653 598.031 224.653C596.594 224.653 595.755 223.618 595.755 221.865V221.778C595.755 220.035 596.648 218.968 598.02 218.968C599.142 218.968 599.719 219.502 599.882 220.536H601.353C601.178 218.707 599.795 217.814 598.009 217.814C595.842 217.814 594.23 219.447 594.23 221.789V221.876C594.23 224.272 595.592 225.829 598.031 225.829ZM602.585 225.72H603.903V222.366C603.903 221.462 604.502 221.005 605.242 221.005C606.026 221.005 606.375 221.397 606.375 222.257V225.72H607.693V222.137C607.693 220.569 606.887 219.905 605.743 219.905C604.807 219.905 604.175 220.373 603.903 220.928V217.389H602.585V225.72ZM611.749 225.829C613.426 225.829 614.678 224.675 614.678 222.9V222.812C614.678 221.07 613.426 219.905 611.759 219.905C610.082 219.905 608.83 221.081 608.83 222.845V222.932C608.83 224.664 610.071 225.829 611.749 225.829ZM611.759 224.805C610.758 224.805 610.18 224.076 610.18 222.91V222.823C610.18 221.647 610.779 220.939 611.759 220.939C612.74 220.939 613.328 221.658 613.328 222.834V222.91C613.328 224.076 612.74 224.805 611.759 224.805ZM618.405 225.829C620.082 225.829 621.335 224.675 621.335 222.9V222.812C621.335 221.07 620.082 219.905 618.416 219.905C616.739 219.905 615.487 221.081 615.487 222.845V222.932C615.487 224.664 616.728 225.829 618.405 225.829ZM618.416 224.805C617.414 224.805 616.837 224.076 616.837 222.91V222.823C616.837 221.647 617.436 220.939 618.416 220.939C619.396 220.939 619.984 221.658 619.984 222.834V222.91C619.984 224.076 619.396 224.805 618.416 224.805ZM624.475 225.829C625.934 225.829 626.751 225.165 626.751 224.01C626.751 222.801 625.956 222.475 624.617 222.268C623.713 222.115 623.44 221.952 623.44 221.538C623.44 221.135 623.778 220.863 624.344 220.863C624.954 220.863 625.248 221.103 625.357 221.625H626.577C626.435 220.34 625.51 219.905 624.344 219.905C623.277 219.905 622.21 220.471 622.21 221.614C622.21 222.682 622.765 223.106 624.268 223.346C625.107 223.488 625.488 223.662 625.488 224.13C625.488 224.609 625.172 224.86 624.464 224.86C623.691 224.86 623.397 224.522 623.332 223.945H622.09C622.145 225.154 623.005 225.829 624.475 225.829ZM630.412 225.829C631.871 225.829 632.84 225.176 633.026 223.978H631.751C631.653 224.533 631.24 224.849 630.445 224.849C629.465 224.849 628.92 224.239 628.877 223.161H633.047V222.78C633.047 220.743 631.773 219.905 630.358 219.905C628.735 219.905 627.526 221.081 627.526 222.845V222.932C627.526 224.729 628.735 225.829 630.412 225.829ZM628.898 222.279C629.029 221.397 629.563 220.863 630.358 220.863C631.174 220.863 631.675 221.299 631.741 222.279H628.898ZM637.451 227.669H638.747L641.85 220.025H640.565L639.172 223.694L637.658 220.025H636.231L638.485 225.143L637.451 227.669ZM645.163 225.829C646.84 225.829 648.092 224.675 648.092 222.9V222.812C648.092 221.07 646.84 219.905 645.174 219.905C643.497 219.905 642.245 221.081 642.245 222.845V222.932C642.245 224.664 643.486 225.829 645.163 225.829ZM645.174 224.805C644.172 224.805 643.595 224.076 643.595 222.91V222.823C643.595 221.647 644.194 220.939 645.174 220.939C646.154 220.939 646.742 221.658 646.742 222.834V222.91C646.742 224.076 646.154 224.805 645.174 224.805ZM651.188 225.829C652.114 225.829 652.713 225.382 652.996 224.827V225.72H654.314V220.025H652.996V223.411C652.996 224.315 652.375 224.773 651.667 224.773C650.905 224.773 650.546 224.381 650.546 223.52V220.025H649.228V223.673C649.228 225.186 650.066 225.829 651.188 225.829ZM655.877 225.72H657.195V222.758C657.195 221.549 657.891 221.179 659.046 221.168V219.937C658.087 219.948 657.554 220.373 657.195 221.092V220.025H655.877V225.72ZM662.833 225.72H664.15V217.389H662.833V225.72ZM668.261 225.829C669.72 225.829 670.689 225.176 670.874 223.978H669.6C669.502 224.533 669.088 224.849 668.293 224.849C667.313 224.849 666.769 224.239 666.725 223.161H670.896V222.78C670.896 220.743 669.622 219.905 668.206 219.905C666.584 219.905 665.375 221.081 665.375 222.845V222.932C665.375 224.729 666.584 225.829 668.261 225.829ZM666.747 222.279C666.878 221.397 667.411 220.863 668.206 220.863C669.023 220.863 669.524 221.299 669.589 222.279H666.747ZM673.459 225.72H674.995L677.053 220.025H675.757L674.287 224.37L672.795 220.025H671.379L673.459 225.72ZM680.321 225.829C681.78 225.829 682.749 225.176 682.935 223.978H681.66C681.562 224.533 681.149 224.849 680.354 224.849C679.373 224.849 678.829 224.239 678.785 223.161H682.956V222.78C682.956 220.743 681.682 219.905 680.266 219.905C678.644 219.905 677.435 221.081 677.435 222.845V222.932C677.435 224.729 678.644 225.829 680.321 225.829ZM678.807 222.279C678.938 221.397 679.471 220.863 680.266 220.863C681.083 220.863 681.584 221.299 681.649 222.279H678.807ZM684.166 225.72H685.484V217.389H684.166V225.72ZM692.222 225.829C693.899 225.829 695.151 224.675 695.151 222.9V222.812C695.151 221.07 693.899 219.905 692.233 219.905C690.555 219.905 689.303 221.081 689.303 222.845V222.932C689.303 224.664 690.545 225.829 692.222 225.829ZM692.233 224.805C691.231 224.805 690.654 224.076 690.654 222.91V222.823C690.654 221.647 691.252 220.939 692.233 220.939C693.213 220.939 693.801 221.658 693.801 222.834V222.91C693.801 224.076 693.213 224.805 692.233 224.805ZM696.571 225.72H697.888V221.016H699.184V220.025H697.888V219.208C697.888 218.718 698.106 218.369 698.64 218.369C698.879 218.369 699.086 218.413 699.239 218.467V217.444C698.999 217.367 698.803 217.335 698.487 217.335C697.268 217.335 696.571 218.01 696.571 219.262V220.025H695.798V221.016H696.571V225.72ZM703.111 225.72H704.428V221.016H705.724V220.025H704.428V219.208C704.428 218.718 704.646 218.369 705.18 218.369C705.419 218.369 705.626 218.413 705.779 218.467V217.444C705.539 217.367 705.343 217.335 705.027 217.335C703.808 217.335 703.111 218.01 703.111 219.262V220.025H702.338V221.016H703.111V225.72ZM706.827 225.72H708.145V222.758C708.145 221.549 708.842 221.179 709.996 221.168V219.937C709.038 219.948 708.504 220.373 708.145 221.092V220.025H706.827V225.72ZM711.831 219.088C712.266 219.088 712.615 218.761 712.615 218.337C712.615 217.901 712.266 217.574 711.831 217.574C711.395 217.574 711.047 217.901 711.047 218.337C711.047 218.761 711.395 219.088 711.831 219.088ZM711.188 225.72H712.506V220.025H711.188V225.72ZM716.606 225.829C718.153 225.829 719.144 224.903 719.242 223.596H718.033C717.957 224.402 717.358 224.816 716.661 224.816C715.692 224.816 715.082 224.163 715.082 222.921V222.834C715.082 221.658 715.724 220.961 716.628 220.961C717.325 220.961 717.826 221.277 717.935 222.039H719.209C719.057 220.471 717.87 219.905 716.606 219.905C715.016 219.905 713.731 221.048 713.731 222.856V222.943C713.731 224.762 714.973 225.829 716.606 225.829ZM722.315 225.818C722.718 225.818 723.001 225.753 723.208 225.676V224.631C723.023 224.707 722.827 224.74 722.565 224.74C722.151 224.74 721.912 224.511 721.912 224.01V221.016H723.164V220.025H721.912V218.772H720.594V220.025H719.832V221.016H720.594V224.13C720.594 225.208 721.182 225.818 722.315 225.818ZM725.072 219.088C725.507 219.088 725.856 218.761 725.856 218.337C725.856 217.901 725.507 217.574 725.072 217.574C724.636 217.574 724.288 217.901 724.288 218.337C724.288 218.761 724.636 219.088 725.072 219.088ZM724.429 225.72H725.747V220.025H724.429V225.72ZM729.89 225.829C731.567 225.829 732.82 224.675 732.82 222.9V222.812C732.82 221.07 731.567 219.905 729.901 219.905C728.224 219.905 726.972 221.081 726.972 222.845V222.932C726.972 224.664 728.213 225.829 729.89 225.829ZM729.901 224.805C728.899 224.805 728.322 224.076 728.322 222.91V222.823C728.322 221.647 728.921 220.939 729.901 220.939C730.881 220.939 731.469 221.658 731.469 222.834V222.91C731.469 224.076 730.881 224.805 729.901 224.805ZM734.01 225.72H735.327V222.366C735.327 221.462 735.926 221.005 736.667 221.005C737.451 221.005 737.799 221.397 737.799 222.257V225.72H739.117V222.137C739.117 220.569 738.311 219.905 737.168 219.905C736.231 219.905 735.6 220.373 735.327 220.928V220.025H734.01V225.72Z" fill="#00152F"/>
		<path d="M735.595 284.13H597.985C595.798 284.13 594.025 285.903 594.025 288.09V313.83C594.025 316.017 595.798 317.79 597.985 317.79H735.595C737.782 317.79 739.555 316.017 739.555 313.83V288.09C739.555 285.903 737.782 284.13 735.595 284.13Z" fill="white"/>
		<path d="M621.251 300.96C621.251 297.406 618.37 294.525 614.816 294.525C611.262 294.525 608.381 297.406 608.381 300.96C608.381 304.514 611.262 307.395 614.816 307.395C618.37 307.395 621.251 304.514 621.251 300.96Z" fill="#0C71E0" stroke="#0C71E0" stroke-width="0.99" stroke-linecap="round"/>
		<path d="M611.64 300.63L613.892 302.94L617.538 298.856" stroke="#0C71E0" stroke-width="0.99" stroke-linecap="round" fill="none"/>
		<path d="M636.338 303.93H637.786V300.739H640.443V299.618H637.786V297.298H641.162V296.144H636.338V303.93ZM644.574 304.039C646.251 304.039 647.503 302.885 647.503 301.109V301.022C647.503 299.28 646.251 298.115 644.585 298.115C642.908 298.115 641.655 299.291 641.655 301.055V301.142C641.655 302.874 642.897 304.039 644.574 304.039ZM644.585 303.015C643.583 303.015 643.006 302.286 643.006 301.12V301.033C643.006 299.857 643.605 299.149 644.585 299.149C645.565 299.149 646.153 299.868 646.153 301.044V301.12C646.153 302.286 645.565 303.015 644.585 303.015ZM648.693 303.93H650.011V300.968C650.011 299.759 650.708 299.389 651.862 299.378V298.147C650.904 298.158 650.37 298.583 650.011 299.302V298.235H648.693V303.93ZM655.409 304.039C656.956 304.039 657.947 303.113 658.045 301.806H656.836C656.76 302.612 656.161 303.026 655.464 303.026C654.495 303.026 653.885 302.373 653.885 301.131V301.044C653.885 299.868 654.527 299.171 655.431 299.171C656.128 299.171 656.629 299.487 656.738 300.249H658.012C657.86 298.681 656.673 298.115 655.409 298.115C653.819 298.115 652.534 299.258 652.534 301.066V301.153C652.534 302.972 653.776 304.039 655.409 304.039ZM661.684 304.039C663.143 304.039 664.112 303.385 664.297 302.188H663.023C662.925 302.743 662.512 303.059 661.717 303.059C660.736 303.059 660.192 302.449 660.148 301.371H664.319V300.99C664.319 298.953 663.045 298.115 661.629 298.115C660.007 298.115 658.798 299.291 658.798 301.055V301.142C658.798 302.939 660.007 304.039 661.684 304.039ZM660.17 300.489C660.301 299.607 660.834 299.073 661.629 299.073C662.446 299.073 662.947 299.509 663.012 300.489H660.17ZM670.585 304.039C672.131 304.039 673.122 303.113 673.22 301.806H672.012C671.935 302.612 671.336 303.026 670.639 303.026C669.67 303.026 669.06 302.373 669.06 301.131V301.044C669.06 299.868 669.703 299.171 670.607 299.171C671.304 299.171 671.805 299.487 671.914 300.249H673.188C673.035 298.681 671.848 298.115 670.585 298.115C668.995 298.115 667.71 299.258 667.71 301.066V301.153C667.71 302.972 668.951 304.039 670.585 304.039ZM674.355 303.93H675.673V300.576C675.673 299.672 676.272 299.215 677.012 299.215C677.796 299.215 678.145 299.607 678.145 300.467V303.93H679.462V300.347C679.462 298.779 678.656 298.115 677.513 298.115C676.576 298.115 675.945 298.583 675.673 299.138V295.599H674.355V303.93ZM682.789 303.091C682.135 303.091 681.874 302.776 681.874 302.296C681.874 301.6 682.516 301.371 683.518 301.371H684.193V301.937C684.193 302.667 683.595 303.091 682.789 303.091ZM682.473 304.039C683.344 304.039 683.845 303.723 684.215 303.233V303.93H685.511V300.195C685.511 298.637 684.509 298.115 683.235 298.115C681.961 298.115 680.905 298.67 680.796 299.999H682.07C682.135 299.432 682.473 299.106 683.159 299.106C683.932 299.106 684.193 299.487 684.193 300.249V300.543H683.486C681.852 300.543 680.567 301.022 680.567 302.351C680.567 303.538 681.427 304.039 682.473 304.039ZM687.054 303.93H688.371V295.599H687.054V303.93ZM690.01 303.93H691.327V295.599H690.01V303.93ZM695.439 304.039C696.898 304.039 697.867 303.385 698.053 302.188H696.778C696.68 302.743 696.267 303.059 695.472 303.059C694.492 303.059 693.947 302.449 693.903 301.371H698.074V300.99C698.074 298.953 696.8 298.115 695.384 298.115C693.762 298.115 692.553 299.291 692.553 301.055V301.142C692.553 302.939 693.762 304.039 695.439 304.039ZM693.925 300.489C694.056 299.607 694.59 299.073 695.384 299.073C696.201 299.073 696.702 299.509 696.768 300.489H693.925ZM699.251 303.93H700.569V300.576C700.569 299.672 701.168 299.215 701.909 299.215C702.693 299.215 703.041 299.607 703.041 300.467V303.93H704.359V300.347C704.359 298.779 703.553 298.115 702.41 298.115C701.473 298.115 700.841 298.583 700.569 299.138V298.235H699.251V303.93ZM708.349 302.689C707.499 302.689 706.846 302.035 706.846 300.979V300.892C706.846 299.857 707.412 299.149 708.392 299.149C709.339 299.149 709.928 299.792 709.928 300.87V300.946C709.928 302.035 709.263 302.689 708.349 302.689ZM708.305 306.021C710.069 306.021 711.191 305.182 711.202 303.505V298.235H709.884V299.106C709.557 298.539 708.991 298.115 708.055 298.115C706.584 298.115 705.495 299.313 705.495 300.913V300.99C705.495 302.634 706.595 303.701 708.022 303.701C708.86 303.701 709.568 303.189 709.884 302.645V303.484C709.884 304.507 709.318 305.019 708.294 305.019C707.434 305.019 706.998 304.692 706.889 304.126H705.561C705.713 305.215 706.519 306.021 708.305 306.021ZM715.273 304.039C716.732 304.039 717.701 303.385 717.886 302.188H716.612C716.514 302.743 716.1 303.059 715.305 303.059C714.325 303.059 713.781 302.449 713.737 301.371H717.908V300.99C717.908 298.953 716.634 298.115 715.218 298.115C713.596 298.115 712.387 299.291 712.387 301.055V301.142C712.387 302.939 713.596 304.039 715.273 304.039ZM713.759 300.489C713.89 299.607 714.423 299.073 715.218 299.073C716.035 299.073 716.536 299.509 716.601 300.489H713.759Z" fill="#0C71E0"/>
		<path d="M735.595 242.55H597.985C595.798 242.55 594.025 244.323 594.025 246.51V272.25C594.025 274.437 595.798 276.21 597.985 276.21H735.595C737.782 276.21 739.555 274.437 739.555 272.25V246.51C739.555 244.323 737.782 242.55 735.595 242.55Z" fill="white"/>
		<path d="M621.746 259.38C621.746 255.553 618.643 252.45 614.816 252.45C610.988 252.45 607.886 255.553 607.886 259.38C607.886 263.207 610.988 266.31 614.816 266.31C618.643 266.31 621.746 263.207 621.746 259.38Z" fill="#E6E7EC"/>
		<path d="M637.896 262.35H639.355V255.707H641.522V254.564H635.729V255.707H637.896V262.35ZM642.196 262.35H643.514V259.388C643.514 258.179 644.211 257.809 645.365 257.798V256.567C644.407 256.578 643.873 257.003 643.514 257.722V256.655H642.196V262.35ZM647.21 264.299H648.505L651.609 256.655H650.324L648.93 260.324L647.416 256.655H645.99L648.244 261.773L647.21 264.299ZM655.421 262.35H656.738V257.646H658.034V256.655H656.738V255.838C656.738 255.348 656.956 254.999 657.49 254.999C657.729 254.999 657.936 255.043 658.089 255.097V254.074C657.849 253.997 657.653 253.965 657.337 253.965C656.118 253.965 655.421 254.64 655.421 255.892V256.655H654.647V257.646H655.421V262.35ZM659.137 262.35H660.455V259.388C660.455 258.179 661.152 257.809 662.306 257.798V256.567C661.348 256.578 660.814 257.003 660.455 257.722V256.655H659.137V262.35ZM664.141 255.718C664.576 255.718 664.925 255.391 664.925 254.967C664.925 254.531 664.576 254.204 664.141 254.204C663.705 254.204 663.356 254.531 663.356 254.967C663.356 255.391 663.705 255.718 664.141 255.718ZM663.498 262.35H664.816V256.655H663.498V262.35ZM668.915 262.459C670.462 262.459 671.453 261.533 671.551 260.226H670.342C670.266 261.032 669.667 261.446 668.97 261.446C668.001 261.446 667.391 260.793 667.391 259.551V259.464C667.391 258.288 668.033 257.591 668.937 257.591C669.634 257.591 670.135 257.907 670.244 258.669H671.518C671.366 257.101 670.179 256.535 668.915 256.535C667.325 256.535 666.04 257.678 666.04 259.486V259.573C666.04 261.392 667.282 262.459 668.915 262.459ZM674.625 262.448C675.028 262.448 675.311 262.383 675.518 262.306V261.261C675.332 261.337 675.136 261.37 674.875 261.37C674.461 261.37 674.222 261.141 674.222 260.64V257.646H675.474V256.655H674.222V255.402H672.904V256.655H672.142V257.646H672.904V260.76C672.904 261.838 673.492 262.448 674.625 262.448ZM677.381 255.718C677.816 255.718 678.165 255.391 678.165 254.967C678.165 254.531 677.816 254.204 677.381 254.204C676.945 254.204 676.597 254.531 676.597 254.967C676.597 255.391 676.945 255.718 677.381 255.718ZM676.738 262.35H678.056V256.655H676.738V262.35ZM682.199 262.459C683.876 262.459 685.129 261.305 685.129 259.53V259.442C685.129 257.7 683.876 256.535 682.21 256.535C680.533 256.535 679.281 257.711 679.281 259.475V259.562C679.281 261.294 680.522 262.459 682.199 262.459ZM682.21 261.435C681.208 261.435 680.631 260.706 680.631 259.54V259.453C680.631 258.277 681.23 257.569 682.21 257.569C683.19 257.569 683.778 258.288 683.778 259.464V259.54C683.778 260.706 683.19 261.435 682.21 261.435ZM686.319 262.35H687.637V258.996C687.637 258.092 688.236 257.635 688.977 257.635C689.761 257.635 690.109 258.027 690.109 258.887V262.35H691.427V258.767C691.427 257.199 690.621 256.535 689.478 256.535C688.541 256.535 687.909 257.003 687.637 257.558V256.655H686.319V262.35ZM692.977 262.35H694.295V254.019H692.977V262.35ZM698.406 262.459C699.866 262.459 700.835 261.806 701.02 260.608H699.746C699.648 261.163 699.234 261.479 698.439 261.479C697.459 261.479 696.914 260.869 696.871 259.791H701.042V259.41C701.042 257.373 699.768 256.535 698.352 256.535C696.729 256.535 695.521 257.711 695.521 259.475V259.562C695.521 261.359 696.729 262.459 698.406 262.459ZM696.893 258.909C697.023 258.027 697.557 257.493 698.352 257.493C699.169 257.493 699.67 257.929 699.735 258.909H696.893ZM704.221 262.459C705.68 262.459 706.497 261.795 706.497 260.64C706.497 259.432 705.702 259.105 704.362 258.898C703.458 258.745 703.186 258.582 703.186 258.168C703.186 257.765 703.524 257.493 704.09 257.493C704.7 257.493 704.994 257.733 705.103 258.255H706.322C706.181 256.97 705.255 256.535 704.09 256.535C703.023 256.535 701.956 257.101 701.956 258.244C701.956 259.312 702.511 259.736 704.014 259.976C704.852 260.118 705.233 260.292 705.233 260.76C705.233 261.239 704.918 261.49 704.21 261.49C703.437 261.49 703.143 261.152 703.077 260.575H701.836C701.89 261.784 702.75 262.459 704.221 262.459ZM709.602 262.459C711.062 262.459 711.878 261.795 711.878 260.64C711.878 259.432 711.083 259.105 709.744 258.898C708.84 258.745 708.568 258.582 708.568 258.168C708.568 257.765 708.905 257.493 709.472 257.493C710.081 257.493 710.375 257.733 710.484 258.255H711.704C711.562 256.97 710.637 256.535 709.472 256.535C708.404 256.535 707.337 257.101 707.337 258.244C707.337 259.312 707.893 259.736 709.395 259.976C710.234 260.118 710.615 260.292 710.615 260.76C710.615 261.239 710.299 261.49 709.591 261.49C708.818 261.49 708.524 261.152 708.459 260.575H707.217C707.272 261.784 708.132 262.459 709.602 262.459Z" fill="#00152F"/>

		<path d="M735.595 325.71H597.985C595.798 325.71 594.025 327.483 594.025 329.67V355.41C594.025 357.597 595.798 359.37 597.985 359.37H735.595C737.782 359.37 739.555 357.597 739.555 355.41V329.67C739.555 327.483 737.782 325.71 735.595 325.71Z" fill="white"/>
		<path d="M636.338 345.51H637.656V339.542L641.162 345.51H642.665V337.724H641.347V343.354L638.069 337.724H636.338V345.51ZM646.828 345.619C648.505 345.619 649.757 344.465 649.757 342.689V342.602C649.757 340.86 648.505 339.695 646.839 339.695C645.162 339.695 643.909 340.871 643.909 342.635V342.722C643.909 344.454 645.151 345.619 646.828 345.619ZM646.839 344.595C645.837 344.595 645.26 343.866 645.26 342.7V342.613C645.26 341.437 645.859 340.729 646.839 340.729C647.819 340.729 648.407 341.448 648.407 342.624V342.7C648.407 343.866 647.819 344.595 646.839 344.595ZM656.396 344.573C655.438 344.573 654.817 343.974 654.817 342.7V342.613C654.817 341.35 655.471 340.729 656.385 340.729C657.246 340.729 657.899 341.35 657.899 342.613V342.7C657.899 343.92 657.365 344.573 656.396 344.573ZM653.543 347.459H654.861V344.617C655.166 345.172 655.819 345.619 656.723 345.619C658.193 345.619 659.249 344.508 659.249 342.679V342.591C659.249 340.751 658.15 339.695 656.723 339.695C655.884 339.695 655.177 340.185 654.861 340.729V339.815H653.543V347.459ZM660.435 345.51H661.752V342.548C661.752 341.339 662.449 340.969 663.603 340.958V339.727C662.645 339.738 662.112 340.163 661.752 340.882V339.815H660.435V345.51ZM667.161 345.619C668.62 345.619 669.589 344.965 669.774 343.768H668.5C668.402 344.323 667.988 344.639 667.193 344.639C666.213 344.639 665.669 344.029 665.625 342.951H669.796V342.57C669.796 340.533 668.522 339.695 667.106 339.695C665.483 339.695 664.275 340.871 664.275 342.635V342.722C664.275 344.519 665.484 345.619 667.161 345.619ZM665.647 342.069C665.778 341.187 666.311 340.653 667.106 340.653C667.923 340.653 668.424 341.089 668.489 342.069H665.647ZM671.202 345.51H672.519V340.806H673.815V339.815H672.519V338.998C672.519 338.508 672.737 338.159 673.271 338.159C673.51 338.159 673.717 338.203 673.87 338.257V337.234C673.63 337.157 673.434 337.125 673.118 337.125C671.899 337.125 671.202 337.8 671.202 339.052V339.815H670.429V340.806H671.202V345.51ZM677.211 345.619C678.67 345.619 679.64 344.965 679.825 343.768H678.551C678.453 344.323 678.039 344.639 677.244 344.639C676.264 344.639 675.719 344.029 675.676 342.951H679.846V342.57C679.846 340.533 678.572 339.695 677.157 339.695C675.534 339.695 674.325 340.871 674.325 342.635V342.722C674.325 344.519 675.534 345.619 677.211 345.619ZM675.697 342.069C675.828 341.187 676.362 340.653 677.157 340.653C677.973 340.653 678.474 341.089 678.54 342.069H675.697ZM681.023 345.51H682.34V342.548C682.34 341.339 683.037 340.969 684.192 340.958V339.727C683.233 339.738 682.7 340.163 682.34 340.882V339.815H681.023V345.51ZM687.75 345.619C689.209 345.619 690.178 344.965 690.363 343.768H689.089C688.991 344.323 688.577 344.639 687.782 344.639C686.802 344.639 686.258 344.029 686.214 342.951H690.385V342.57C690.385 340.533 689.111 339.695 687.695 339.695C686.073 339.695 684.864 340.871 684.864 342.635V342.722C684.864 344.519 686.073 345.619 687.75 345.619ZM686.236 342.069C686.367 341.187 686.9 340.653 687.695 340.653C688.512 340.653 689.013 341.089 689.078 342.069H686.236ZM691.562 345.51H692.88V342.156C692.88 341.252 693.479 340.795 694.219 340.795C695.003 340.795 695.352 341.187 695.352 342.047V345.51H696.67V341.927C696.67 340.359 695.864 339.695 694.72 339.695C693.784 339.695 693.152 340.163 692.88 340.718V339.815H691.562V345.51ZM700.681 345.619C702.227 345.619 703.218 344.693 703.316 343.386H702.108C702.031 344.192 701.432 344.606 700.735 344.606C699.766 344.606 699.156 343.953 699.156 342.711V342.624C699.156 341.448 699.799 340.751 700.703 340.751C701.4 340.751 701.901 341.067 702.01 341.829H703.284C703.131 340.261 701.944 339.695 700.681 339.695C699.091 339.695 697.806 340.838 697.806 342.646V342.733C697.806 344.552 699.047 345.619 700.681 345.619ZM706.957 345.619C708.416 345.619 709.385 344.965 709.57 343.768H708.296C708.198 344.323 707.784 344.639 706.989 344.639C706.009 344.639 705.465 344.029 705.421 342.951H709.592V342.57C709.592 340.533 708.318 339.695 706.902 339.695C705.28 339.695 704.071 340.871 704.071 342.635V342.722C704.071 344.519 705.28 345.619 706.957 345.619ZM705.443 342.069C705.574 341.187 706.107 340.653 706.902 340.653C707.719 340.653 708.22 341.089 708.285 342.069H705.443Z" fill="#00152F"/>
		<path d="M621.746 342.54C621.746 338.713 618.643 335.61 614.816 335.61C610.988 335.61 607.886 338.713 607.886 342.54C607.886 346.367 610.988 349.47 614.816 349.47C618.643 349.47 621.746 346.367 621.746 342.54Z" fill="#E6E7EC"/>
	</g>

	<g class="svg-section-5">
		<path d="M494.035 236.61H398.995C396.808 236.61 395.035 238.383 395.035 240.57V364.32C395.035 366.507 396.808 368.28 398.995 368.28H494.035C496.222 368.28 497.995 366.507 497.995 364.32V240.57C497.995 238.383 496.222 236.61 494.035 236.61Z" fill="white"/>

		<path d="M474.883 261.699V289.338C474.883 303.99 446.872 321.75 446.872 321.75C446.872 321.75 418.861 305.822 418.861 289.338V261.699C418.861 261.699 440.87 259.479 446.872 248.49C452.875 259.479 474.883 261.699 474.883 261.699Z" fill="#0C71E0"/>
		<path d="M472.084 264.457V288.877C472.084 301.823 446.873 318.515 446.873 318.515C446.873 318.515 421.663 303.441 421.663 288.877V264.457C421.663 264.457 441.471 262.496 446.873 252.787C452.276 262.496 472.084 264.457 472.084 264.457Z" fill="#0C71E0"/>
		<path d="M446.872 284.503C452.766 284.503 457.544 279.726 457.544 273.833C457.544 267.94 452.766 263.162 446.872 263.162C440.979 263.162 436.201 267.94 436.201 273.833C436.201 279.726 440.979 284.503 446.872 284.503Z" fill="white" fill-opacity="0.4"/>
		<path d="M465.63 302.262C465.63 302.262 463.521 295.012 461.436 291.941C461.436 291.941 459.889 289.354 457.282 289.071C457.284 289.071 453.094 288.66 448.755 288.66H445.273C440.935 288.66 436.744 289.071 436.744 289.071C434.136 289.354 432.31 293.051 432.31 293.051C429.858 297.673 428.199 303.012 428.199 303.012C428.199 303.012 433.867 310.265 446.873 318.519C446.873 318.519 457.876 311.266 465.63 302.262Z" fill="white" fill-opacity="0.4"/>
		<path d="M462.457 321.671C469.405 321.671 475.038 316.039 475.038 309.091C475.038 302.143 469.405 296.511 462.457 296.511C455.509 296.511 449.877 302.143 449.877 309.091C449.877 316.039 455.509 321.671 462.457 321.671Z" fill="#0C71E0"/>
		<path d="M469.116 302.429H455.796V315.75H469.116V302.429Z" fill="#0C71E0"/>
		<path d="M456.212 309.506L460.375 313.669L468.7 305.343" stroke="white" stroke-width="1.98" stroke-linecap="round" fill="none"/>
		<path d="M426.488 336.931L427.632 340.546H425.334L426.488 336.931ZM423.025 343.53H424.386L424.996 341.602H427.969L428.59 343.53H430.093L427.523 335.744H425.628L423.025 343.53ZM434.025 342.593C433.067 342.593 432.446 341.994 432.446 340.72V340.633C432.446 339.37 433.099 338.749 434.014 338.749C434.874 338.749 435.528 339.37 435.528 340.633V340.72C435.528 341.94 434.994 342.593 434.025 342.593ZM431.172 345.479H432.489V342.637C432.794 343.192 433.448 343.639 434.352 343.639C435.822 343.639 436.878 342.528 436.878 340.699V340.611C436.878 338.771 435.778 337.715 434.352 337.715C433.513 337.715 432.805 338.205 432.489 338.749V337.834H431.172V345.479ZM440.916 342.593C439.958 342.593 439.337 341.994 439.337 340.72V340.633C439.337 339.37 439.991 338.749 440.905 338.749C441.766 338.749 442.419 339.37 442.419 340.633V340.72C442.419 341.94 441.886 342.593 440.916 342.593ZM438.063 345.479H439.381V342.637C439.686 343.192 440.339 343.639 441.243 343.639C442.713 343.639 443.77 342.528 443.77 340.699V340.611C443.77 338.771 442.67 337.715 441.243 337.715C440.405 337.715 439.697 338.205 439.381 338.749V337.834H438.063V345.479ZM444.987 343.53H446.305V335.199H444.987V343.53ZM448.543 345.479H449.839L452.943 337.834H451.658L450.264 341.504L448.75 337.834H447.324L449.578 342.953L448.543 345.479ZM459.052 343.639C460.838 343.639 461.971 342.746 461.971 341.308C461.971 340.274 461.372 339.631 460.468 339.424C461.219 339.141 461.731 338.608 461.731 337.726C461.731 336.571 460.784 335.635 459.161 335.635C457.495 335.635 456.482 336.669 456.406 338.02H457.691C457.778 337.236 458.312 336.735 459.139 336.735C459.945 336.735 460.348 337.203 460.348 337.834C460.348 338.564 459.945 338.978 459.052 338.978H458.497V340.012H459.096C460.043 340.012 460.501 340.437 460.501 341.287C460.501 342.06 460.032 342.55 459.02 342.55C457.974 342.55 457.517 341.94 457.44 341.123H456.123C456.188 342.615 457.201 343.639 459.052 343.639ZM463.419 343.53H465.76C468.494 343.53 469.812 341.918 469.812 339.653V339.555C469.812 337.29 468.494 335.744 465.782 335.744H463.419V343.53ZM464.867 342.387V336.887H465.706C467.535 336.887 468.298 337.9 468.298 339.577V339.664C468.298 341.385 467.459 342.387 465.717 342.387H464.867ZM411.568 356.509C413.288 356.509 414.432 355.453 414.432 354.102C414.432 352.545 413.484 352.022 411.655 351.772C410.305 351.576 410.043 351.26 410.043 350.628C410.043 350.029 410.501 349.605 411.383 349.605C412.276 349.605 412.744 349.953 412.886 350.77H414.214C414.062 349.278 413.06 348.516 411.383 348.516C409.76 348.516 408.671 349.474 408.671 350.748C408.671 352.207 409.553 352.774 411.415 353.024C412.679 353.231 413.038 353.503 413.038 354.222C413.038 354.941 412.428 355.42 411.568 355.42C410.25 355.42 409.934 354.766 409.836 353.982H408.442C408.551 355.453 409.444 356.509 411.568 356.509ZM418.23 356.509C419.689 356.509 420.658 355.855 420.843 354.658H419.569C419.471 355.213 419.057 355.529 418.262 355.529C417.282 355.529 416.738 354.919 416.694 353.841H420.865V353.46C420.865 351.423 419.591 350.585 418.175 350.585C416.552 350.585 415.344 351.761 415.344 353.525V353.612C415.344 355.409 416.552 356.509 418.23 356.509ZM416.716 352.959C416.846 352.077 417.38 351.543 418.175 351.543C418.992 351.543 419.493 351.979 419.558 352.959H416.716ZM424.536 356.509C426.082 356.509 427.073 355.583 427.171 354.276H425.962C425.886 355.082 425.287 355.496 424.59 355.496C423.621 355.496 423.011 354.843 423.011 353.601V353.514C423.011 352.338 423.654 351.641 424.558 351.641C425.255 351.641 425.756 351.957 425.864 352.719H427.139C426.986 351.151 425.799 350.585 424.536 350.585C422.946 350.585 421.661 351.728 421.661 353.536V353.623C421.661 355.442 422.902 356.509 424.536 356.509ZM430.212 356.509C431.137 356.509 431.736 356.062 432.019 355.507V356.4H433.337V350.704H432.019V354.091C432.019 354.995 431.399 355.453 430.691 355.453C429.928 355.453 429.569 355.06 429.569 354.2V350.704H428.251V354.353C428.251 355.866 429.09 356.509 430.212 356.509ZM434.9 356.4H436.218V353.438C436.218 352.229 436.915 351.859 438.069 351.848V350.617C437.111 350.628 436.577 351.053 436.218 351.772V350.704H434.9V356.4ZM441.626 356.509C443.085 356.509 444.055 355.855 444.24 354.658H442.966C442.868 355.213 442.454 355.529 441.659 355.529C440.679 355.529 440.134 354.919 440.091 353.841H444.262V353.46C444.262 351.423 442.987 350.585 441.572 350.585C439.949 350.585 438.74 351.761 438.74 353.525V353.612C438.74 355.409 439.949 356.509 441.626 356.509ZM440.113 352.959C440.243 352.077 440.777 351.543 441.572 351.543C442.389 351.543 442.889 351.979 442.955 352.959H440.113ZM448.262 356.4H449.58V351.695H450.876V350.704H449.58V349.888C449.58 349.398 449.798 349.049 450.331 349.049C450.571 349.049 450.778 349.093 450.93 349.147V348.124C450.691 348.047 450.495 348.015 450.179 348.015C448.959 348.015 448.262 348.69 448.262 349.942V350.704H447.489V351.695H448.262V356.4ZM451.98 356.4H453.297V353.438C453.297 352.229 453.994 351.859 455.149 351.848V350.617C454.19 350.628 453.657 351.053 453.297 351.772V350.704H451.98V356.4ZM456.983 349.768C457.419 349.768 457.767 349.441 457.767 349.017C457.767 348.581 457.419 348.254 456.983 348.254C456.547 348.254 456.199 348.581 456.199 349.017C456.199 349.441 456.547 349.768 456.983 349.768ZM456.341 356.4H457.658V350.704H456.341V356.4ZM461.758 356.509C463.304 356.509 464.295 355.583 464.393 354.276H463.184C463.108 355.082 462.509 355.496 461.812 355.496C460.843 355.496 460.233 354.843 460.233 353.601V353.514C460.233 352.338 460.876 351.641 461.78 351.641C462.477 351.641 462.978 351.957 463.086 352.719H464.361C464.208 351.151 463.021 350.585 461.758 350.585C460.168 350.585 458.883 351.728 458.883 353.536V353.623C458.883 355.442 460.124 356.509 461.758 356.509ZM467.466 356.498C467.869 356.498 468.152 356.433 468.359 356.356V355.311C468.174 355.387 467.978 355.42 467.717 355.42C467.303 355.42 467.063 355.191 467.063 354.69V351.695H468.316V350.704H467.063V349.452H465.746V350.704H464.983V351.695H465.746V354.81C465.746 355.888 466.334 356.498 467.466 356.498ZM470.223 349.768C470.659 349.768 471.007 349.441 471.007 349.017C471.007 348.581 470.659 348.254 470.223 348.254C469.788 348.254 469.439 348.581 469.439 349.017C469.439 349.441 469.788 349.768 470.223 349.768ZM469.581 356.4H470.899V350.704H469.581V356.4ZM475.042 356.509C476.719 356.509 477.971 355.355 477.971 353.579V353.492C477.971 351.75 476.719 350.585 475.053 350.585C473.376 350.585 472.123 351.761 472.123 353.525V353.612C472.123 355.344 473.365 356.509 475.042 356.509ZM475.053 355.485C474.051 355.485 473.474 354.756 473.474 353.59V353.503C473.474 352.327 474.072 351.619 475.053 351.619C476.033 351.619 476.621 352.338 476.621 353.514V353.59C476.621 354.756 476.033 355.485 475.053 355.485ZM479.162 356.4H480.48V353.046C480.48 352.142 481.079 351.685 481.819 351.685C482.603 351.685 482.952 352.077 482.952 352.937V356.4H484.269V352.817C484.269 351.249 483.464 350.585 482.32 350.585C481.384 350.585 480.752 351.053 480.48 351.608V350.704H479.162V356.4Z" fill="#0C71E0"/>
	</g>

	<defs>
	<filter id="filter0_d_98_59355" x="385.135" y="17.82" width="122.76" height="151.47" filterUnits="userSpaceOnUse" color-interpolation-filters="sRGB">
	<feFlood flood-opacity="0" result="BackgroundImageFix"/>
	<feColorMatrix in="SourceAlpha" type="matrix" values="0 0 0 0 0 0 0 0 0 0 0 0 0 0 0 0 0 0 127 0" result="hardAlpha"/>
	<feOffset/>
	<feGaussianBlur stdDeviation="4.95"/>
	<feComposite in2="hardAlpha" operator="out"/>
	<feColorMatrix type="matrix" values="0 0 0 0 0 0 0 0 0 0 0 0 0 0 0 0 0 0 0.1 0"/>
	<feBlend mode="normal" in2="BackgroundImageFix" result="effect1_dropShadow_98_59355"/>
	<feBlend mode="normal" in="SourceGraphic" in2="effect1_dropShadow_98_59355" result="shape"/>
	</filter>
	<filter id="filter1_d_98_59355" x="385.135" y="226.71" width="221.265" height="151.47" filterUnits="userSpaceOnUse" color-interpolation-filters="sRGB">
	<feFlood flood-opacity="0" result="BackgroundImageFix"/>
	<feColorMatrix in="SourceAlpha" type="matrix" values="0 0 0 0 0 0 0 0 0 0 0 0 0 0 0 0 0 0 127 0" result="hardAlpha"/>
	<feOffset/>
	<feGaussianBlur stdDeviation="4.95"/>
	<feComposite in2="hardAlpha" operator="out"/>
	<feColorMatrix type="matrix" values="0 0 0 0 0 0 0 0 0 0 0 0 0 0 0 0 0 0 0.1 0"/>
	<feBlend mode="normal" in2="BackgroundImageFix" result="effect1_dropShadow_98_59355"/>
	<feBlend mode="normal" in="SourceGraphic" in2="effect1_dropShadow_98_59355" result="shape"/>
	</filter>
	</defs>
</svg>