<svg width="18" height="18" viewBox="0 0 18 18" fill="none" xmlns="http://www.w3.org/2000/svg">
<mask id="mask0_190_3245" style="mask-type:luminance" maskUnits="userSpaceOnUse" x="0" y="0" width="18" height="18">
<path d="M18 0H0V18H18V0Z" fill="white"/>
</mask>
<g mask="url(#mask0_190_3245)">
<path fill-rule="evenodd" clip-rule="evenodd" d="M9 18C4.029 18 0 13.971 0 9C0 4.029 4.029 0 9 0C13.971 0 18 4.029 18 9C18 13.971 13.971 18 9 18Z" fill="#006E90"/>
<mask id="mask1_190_3245" style="mask-type:alpha" maskUnits="userSpaceOnUse" x="0" y="0" width="18" height="18">
<path fill-rule="evenodd" clip-rule="evenodd" d="M9 18C4.029 18 0 13.971 0 9C0 4.029 4.029 0 9 0C13.971 0 18 4.029 18 9C18 13.971 13.971 18 9 18Z" fill="white"/>
</mask>
<g mask="url(#mask1_190_3245)">
<path d="M18 0H0V18H18V0Z" fill="#D5F6F8"/>
</g>
<path fill-rule="evenodd" clip-rule="evenodd" d="M13.8533 6.14601C13.6583 5.95101 13.3412 5.95101 13.1462 6.14601L7.49928 11.792L4.85328 9.14601C4.65828 8.95101 4.34125 8.95101 4.14625 9.14601C3.95125 9.34101 3.95125 9.65801 4.14625 9.85301L7.14625 12.853C7.24425 12.951 7.37228 13 7.49928 13C7.62728 13 7.75528 12.951 7.85328 12.853L13.8533 6.85301C14.0483 6.65801 14.0483 6.34101 13.8533 6.14601Z" fill="#D5F6F8"/>
<mask id="mask2_190_3245" style="mask-type:alpha" maskUnits="userSpaceOnUse" x="4" y="5" width="10" height="8">
<path fill-rule="evenodd" clip-rule="evenodd" d="M13.8533 6.14601C13.6583 5.95101 13.3412 5.95101 13.1462 6.14601L7.49928 11.792L4.85328 9.14601C4.65828 8.95101 4.34125 8.95101 4.14625 9.14601C3.95125 9.34101 3.95125 9.65801 4.14625 9.85301L7.14625 12.853C7.24425 12.951 7.37228 13 7.49928 13C7.62728 13 7.75528 12.951 7.85328 12.853L13.8533 6.85301C14.0483 6.65801 14.0483 6.34101 13.8533 6.14601Z" fill="white"/>
</mask>
<g mask="url(#mask2_190_3245)">
<path d="M18 0H0V18H18V0Z" fill="#006E90"/>
</g>
</g>
</svg>
