<svg width="48" height="48" viewBox="0 0 48 48" fill="none" xmlns="http://www.w3.org/2000/svg">
<path opacity="0.7" d="M6 24.0001C6 14.0591 14.0588 6.00024 23.9999 6.00024C33.9409 6.00024 41.9997 14.0591 41.9997 24.0001C41.9997 33.9412 33.9409 42 23.9999 42C14.0588 42 6 33.9412 6 24.0001Z" fill="url(#paint0_linear_98_33120)"/>
<path opacity="0.7" d="M30 29.9998H38.9999C43.9705 29.9998 47.9999 34.0292 47.9999 38.9997C47.9999 43.9702 43.9705 47.9996 38.9999 47.9996C34.0294 47.9996 30 43.9702 30 38.9997V29.9998Z" fill="url(#paint1_linear_98_33120)"/>
<path opacity="0.7" d="M18 29.9998L18 38.9997C18 43.9702 13.9706 47.9996 9.00007 47.9996C4.02954 47.9996 0.000136718 43.9702 0.000136936 38.9997C0.000137153 34.0292 4.02955 29.9998 9.00007 29.9998L18 29.9998Z" fill="url(#paint2_linear_98_33120)"/>
<path opacity="0.7" d="M30 17.9998L30 8.99982C30 4.02929 34.0294 -0.000106988 38.9999 -0.000107205C43.9705 -0.000107422 47.9999 4.0293 47.9999 8.99982C47.9999 13.9704 43.9705 17.9998 38.9999 17.9998L30 17.9998Z" fill="url(#paint3_linear_98_33120)"/>
<path opacity="0.7" d="M18 17.9998L9.00006 17.9998C4.02954 17.9998 0.000136977 13.9704 0.000136542 8.99983C0.000136108 4.0293 4.02954 -0.00010559 9.00007 -0.000106025C13.9706 -0.000106459 18 4.0293 18 8.99983L18 17.9998Z" fill="url(#paint4_linear_98_33120)"/>
<defs>
<linearGradient id="paint0_linear_98_33120" x1="-3.62782" y1="19.8141" x2="47.4415" y2="20.6513" gradientUnits="userSpaceOnUse">
<stop stop-color="#0CE087"/>
<stop offset="1" stop-color="#8EFFD0"/>
</linearGradient>
<linearGradient id="paint1_linear_98_33120" x1="27.4733" y1="42.3301" x2="48.3501" y2="31.9089" gradientUnits="userSpaceOnUse">
<stop stop-color="#C2E00C"/>
<stop offset="1" stop-color="#F0FF97"/>
</linearGradient>
<linearGradient id="paint2_linear_98_33120" x1="5.66967" y1="27.4731" x2="16.0908" y2="48.3499" gradientUnits="userSpaceOnUse">
<stop stop-color="#C2E00C"/>
<stop offset="1" stop-color="#F0FF97"/>
</linearGradient>
<linearGradient id="paint3_linear_98_33120" x1="42.3303" y1="20.5264" x2="31.9092" y2="-0.350386" gradientUnits="userSpaceOnUse">
<stop stop-color="#C2E00C"/>
<stop offset="1" stop-color="#F0FF97"/>
</linearGradient>
<linearGradient id="paint4_linear_98_33120" x1="20.5267" y1="5.66942" x2="-0.350142" y2="16.0906" gradientUnits="userSpaceOnUse">
<stop stop-color="#C2E00C"/>
<stop offset="1" stop-color="#F0FF97"/>
</linearGradient>
</defs>
</svg>
